<svg width="119" height="150" fill="none" xmlns="http://www.w3.org/2000/svg"><path d="M70.89.398c-16.523 0-26.078 7.398-30.687 12.508-.548-4.403-3.46-10.117-14.818-10.117H.718v25.766h10.11c1.71 0 2.26.545 2.26 2.249V148.45h29.405v-44.155c0-1.192-.024-2.306-.055-3.303 4.593 4.21 13.365 10.005 27.067 10.005 28.74 0 48.833-22.734 48.833-55.295C118.338 22.626 99.26.398 70.889.398zM64.914 85.44c-15.83 0-23.021-15.125-23.021-29.138 0-22.072 12.096-29.939 23.415-29.939 13.88 0 23.215 11.943 23.215 29.733 0 20.286-11.87 29.344-23.609 29.344z" fill="#231F1F"/></svg>