<svg width="556" height="421" fill="none" xmlns="http://www.w3.org/2000/svg"><path d="M517.002 189c0 104.382-84.618 189-189 189s-189-84.618-189-189 84.618-189 189-189 189 84.618 189 189z" fill="url(#paint0_linear_1_7817)"/><path d="M26.883 402l46.105-1.509-10.878-24.613c-9.267-2.05-14.646-3.901-20.727-16.999C34.883 344.879 32.5 342 28 340l-1.118 62z" fill="#111928"/><path d="M28.002 340v62l-5.752.719a2 2 0 01-2.248-1.985V342a2 2 0 012-2h6z" fill="#76A9FA"/><path d="M213.137 331.449l-151.32 26.73a2.001 2.001 0 00-1.644 2.155l3.638 39.11a2 2 0 002.24 1.799L227.502 381l146.5 21.5-79-69.5-53.944-3.173a119.975 119.975 0 00-27.921 1.622z" fill="#1627A7"/><path d="M213.137 331.449l-151.32 26.73a2.001 2.001 0 00-1.644 2.155l3.638 39.11a2 2 0 002.24 1.799L227.502 381l146.5 21.5-79-69.5-53.944-3.173a119.975 119.975 0 00-27.921 1.622z" fill="url(#paint1_linear_1_7817)"/><path fill-rule="evenodd" clip-rule="evenodd" d="M76.366 399.95l-3.903-43.651-1.977.349 3.895 43.551 1.985-.249z" fill="#A4CAFE"/><path d="M319.002 215l51.5-39.5-9 63-41 16.5-1.5-40z" fill="#F9FAFB"/><path d="M319.002 215l51.5-39.5-9 63-41 16.5-1.5-40z" fill="url(#paint2_linear_1_7817)"/><path d="M357.385 101.209c.664-6.595 6.609-19.742 26.215-18.196 3.134.635 10.401 5.163 14.401 18.196 5 16.291 22 6.791 28.5 21.291s-8 21.5-4 31 5 19.5 1.5 24.5c-3.666-6.167-13.4-21.8-27-27l-17-19-21-26.5-1.616-4.291z" fill="#111928"/><path d="M407.792 80.394c-7.107 8.927-19.119 11.186-26.83 5.047-7.71-6.139-8.2-18.352-1.092-27.278 7.107-8.927 19.119-11.186 26.83-5.047 7.71 6.139 8.199 18.352 1.092 27.278z" fill="#111928"/><path d="M381.402 161.329l-8.165-22.791 10.079-12.627 14.132 25.243c-2.672 4.626-12.286 8.866-16.046 10.175z" fill="#FDBA8C"/><path d="M381.402 161.329l-8.165-22.791 10.079-12.627 14.132 25.243c-2.672 4.626-12.286 8.866-16.046 10.175z" fill="url(#paint3_linear_1_7817)"/><path d="M389.137 112.782c3.221 1.919-2.112 27.488-18.597 27.993-5.697.175-9.135-4.694-11.112-11.358-.147-.496-.523.186-.654-.328-.128-.502-.012-2.201-.126-2.718-1.827-8.315-1.824-18.425-1.264-25.162 2.728 1.199 8.856 5.042 11.547 10.819 3.364 7.221 9.485 8.739 11.985 5.437 2.692-3.556 4.999-6.603 8.221-4.683z" fill="#FDBA8C"/><path fill-rule="evenodd" clip-rule="evenodd" d="M358.303 118.572a.678.678 0 01.67.685l-.104 9.319a.262.262 0 00.313.26l3.915-.785a.677.677 0 11.266 1.328l-3.915.785a1.616 1.616 0 01-1.934-1.603l.104-9.319a.678.678 0 01.685-.67zm6.948 14.701c.804-.312 1.615-.783 2.843-1.537a.677.677 0 01.708 1.155c-1.217.747-2.126 1.282-3.061 1.645-.952.37-1.902.551-3.206.642a.677.677 0 01-.094-1.352c1.216-.084 2.023-.247 2.81-.553zm21.367-13.709c.258-.962.072-1.855-.291-2.751a.677.677 0 111.256-.509c.419 1.036.708 2.25.344 3.61-.362 1.353-1.341 2.736-3.213 4.187a.678.678 0 01-.83-1.071c1.734-1.343 2.475-2.497 2.734-3.466z" fill="#111928"/><path fill-rule="evenodd" clip-rule="evenodd" d="M366.943 125.1c.36-1.388.42-3.33.018-5.469-.402-2.14-1.164-3.927-2.004-5.089-.916-1.268-1.568-1.362-1.747-1.329-.179.034-.752.359-1.145 1.873-.36 1.387-.42 3.329-.018 5.469.402 2.139 1.164 3.927 2.004 5.089.916 1.267 1.567 1.362 1.747 1.328.179-.033.752-.358 1.145-1.872zm-.868 3.346c2.171-.408 3.228-4.479 2.36-9.092-.868-4.614-3.331-8.023-5.502-7.615-2.171.409-3.228 4.48-2.36 9.093.867 4.614 3.331 8.023 5.502 7.614zm-9.132-3.346c.36-1.388.42-3.33.018-5.469-.402-2.14-1.164-3.927-2.004-5.089-.916-1.268-1.568-1.362-1.747-1.329-.179.034-.752.359-1.145 1.873-.36 1.387-.42 3.329-.018 5.469.402 2.139 1.164 3.927 2.004 5.089.916 1.267 1.567 1.362 1.747 1.328.179-.033.752-.358 1.145-1.872zm-.868 3.346c2.171-.408 3.228-4.479 2.36-9.092-.868-4.614-3.331-8.023-5.502-7.615-2.171.409-3.228 4.48-2.36 9.093.867 4.614 3.331 8.023 5.502 7.614z" fill="#111928"/><path d="M180.002 396l22-37h-28.5c-6.409 7-16.024 21.7-30.191 24.5-14.166 2.8-23.442 9.5-26.309 12.5h63z" fill="#111928"/><path d="M117.002 396h63l-3.424 5.992a2 2 0 01-1.737 1.008h-58.393c-1.535 0-2.498-1.659-1.736-2.992l2.29-4.008z" fill="#76A9FA"/><path d="M377.502 403c48.8-.4 50.667-68 45.5-101.5l-51.5-7c-22.666-14.833-71.8-47.2-87-58-19-13.5-38-14.5-55 4-13.206 14.371-58.597 83.023-81.511 118.424-.861 1.33.099 3.076 1.683 3.076h55.736a2 2 0 001.683-.919l47.909-74.581c20.5 38.833 73.7 116.9 122.5 116.5z" fill="#1627A7"/><path d="M377.502 403c48.8-.4 50.667-68 45.5-101.5l-51.5-7c-22.666-14.833-71.8-47.2-87-58-19-13.5-38-14.5-55 4-13.206 14.371-58.597 83.023-81.511 118.424-.861 1.33.099 3.076 1.683 3.076h55.736a2 2 0 001.683-.919l47.909-74.581c20.5 38.833 73.7 116.9 122.5 116.5z" fill="url(#paint4_linear_1_7817)"/><path fill-rule="evenodd" clip-rule="evenodd" d="M214.211 350h-60.425l-1.302 2h60.443l1.284-2z" fill="#A4CAFE"/><path d="M428.504 304.5l-25.5-1.5 23.5-51.5 2 53z" fill="#F9FAFB"/><path d="M428.504 304.5l-25.5-1.5 23.5-51.5 2 53z" fill="url(#paint5_linear_1_7817)"/><path d="M395.003 312.5c-13.37 3.342-28.061-1.964-35.03-5.675-.862-.459-1.212-1.492-.86-2.402l5.39-13.923-9-6.5c-.833-21.167-2-64.2 0-81 2-16.8 17.166-33 24.5-39l23.5-10c7.666 1 23.8 13.2 27 54 4 51-17.5 100-35.5 104.5z" fill="#F9FAFB"/><path d="M374.99 270.317L373.004 268l-18.5-14 11-34.5 25.5 19.5-14.347 31.085a1 1 0 01-1.667.232z" fill="url(#paint6_linear_1_7817)"/><path d="M380.002 165.5c-.4-2.8.5-4.833 1-5.5 7.2-1.2 14-6.5 16.5-9 2.8.8 5.167 2.333 6 3-.5 1-2.9 3.8-8.5 7s-12.333 4.333-15 4.5z" fill="#F9FAFB"/><path d="M380.002 165.5c-.4-2.8.5-4.833 1-5.5 7.2-1.2 14-6.5 16.5-9 2.8.8 5.167 2.333 6 3-.5 1-2.9 3.8-8.5 7s-12.333 4.333-15 4.5z" fill="url(#paint7_linear_1_7817)"/><path d="M333.502 156.443c-3.5-31.443-40.833-30.944-49.5-31.443-9.6 0-15.333 4.658-17 6.987 14.5 6.988 20.5 26.952 14 61.889s0 89.339 33 127.77 118 16.97 139.5 44.42c15.841 20.226 35.443 31.844 45.212 36.022 1.505.644 3.125.912 4.761.912h52.527c-22.5 0-46-29.447-63-45.418-17-15.972-61.5-11.48-89-15.972-27.5-4.492-55-32.94-68-70.373-13-37.433.85-84.697-2.5-114.794z" fill="#A4CAFE"/><path d="M333.502 156.443c-3.5-31.443-40.833-30.944-49.5-31.443-9.6 0-15.333 4.658-17 6.987 14.5 6.988 20.5 26.952 14 61.889s0 89.339 33 127.77 118 16.97 139.5 44.42c15.841 20.226 35.443 31.844 45.212 36.022 1.505.644 3.125.912 4.761.912h52.527c-22.5 0-46-29.447-63-45.418-17-15.972-61.5-11.48-89-15.972-27.5-4.492-55-32.94-68-70.373-13-37.433.85-84.697-2.5-114.794z" fill="url(#paint8_linear_1_7817)"/><path d="M333.502 156.443c-3.5-31.443-40.833-30.944-49.5-31.443-9.6 0-15.333 4.658-17 6.987 14.5 6.988 20.5 26.952 14 61.889s0 89.339 33 127.77 118 16.97 139.5 44.42c15.841 20.226 35.443 31.844 45.212 36.022 1.505.644 3.125.912 4.761.912h52.527c-22.5 0-46-29.447-63-45.418-17-15.972-61.5-11.48-89-15.972-27.5-4.492-55-32.94-68-70.373-13-37.433.85-84.697-2.5-114.794z" fill="url(#paint9_linear_1_7817)"/><path d="M308.502 199c2.5 13 27.5 41 56 92l8.5-23c-12.333-16.334-37.7-50.4-40.5-56-2.51-5.019-5.742-10.681-7.826-13.602-.388-.544-1.099-.729-1.719-.48a1.517 1.517 0 00-.827 2.017l2.872 6.565c-5.667-6.834-18.465-17.721-16.5-7.5z" fill="#FDBA8C"/><path d="M308.502 199c2.5 13 27.5 41 56 92l8.5-23c-12.333-16.334-37.7-50.4-40.5-56-2.51-5.019-5.742-10.681-7.826-13.602-.388-.544-1.099-.729-1.719-.48a1.517 1.517 0 00-.827 2.017l2.872 6.565c-5.667-6.834-18.465-17.721-16.5-7.5z" fill="url(#paint10_linear_1_7817)"/><path d="M296.502 154c-.4 3.2-8.833 12.667-13 17-.5 15-2.5 24.167-4 34-2.333-10.667-6.3-33.8-3.5-41 3.5-9 13-13.5 15.5-14s5.5 0 5 4z" fill="#FDBA8C"/><path d="M296.502 154c-.4 3.2-8.833 12.667-13 17-.5 15-2.5 24.167-4 34-2.333-10.667-6.3-33.8-3.5-41 3.5-9 13-13.5 15.5-14s5.5 0 5 4z" fill="url(#paint11_linear_1_7817)"/><path d="M133.002 65a2 2 0 012-2h81.012a2 2 0 012 2v30.332a2 2 0 01-2 2h-81.012a2 2 0 01-2-2V65z" fill="#A4CAFE"/><path fill-rule="evenodd" clip-rule="evenodd" d="M157.358 73.635a1 1 0 01.108 1.41l-8.978 10.474a2 2 0 01-3.146-.139l-3.345-4.683a1 1 0 011.627-1.162l3.345 4.683 8.979-10.475a1 1 0 011.41-.108z" fill="#F9FAFB"/><path d="M164.064 80a1 1 0 011-1h43.776a1 1 0 110 2h-43.776a1 1 0 01-1-1z" fill="#F9FAFB"/><path d="M441.99 65a2 2 0 012-2h81.013a2 2 0 012 2v30.332a2 2 0 01-2 2H443.99a2 2 0 01-2-2V65z" fill="#A4CAFE"/><path fill-rule="evenodd" clip-rule="evenodd" d="M466.346 73.635a1 1 0 01.108 1.41l-8.978 10.474a2 2 0 01-3.146-.139l-3.345-4.683a1 1 0 111.628-1.162l3.345 4.683 8.978-10.475a1 1 0 011.41-.108z" fill="#F9FAFB"/><path d="M473.053 80a1 1 0 011-1h43.776a1 1 0 010 2h-43.776a1 1 0 01-1-1z" fill="#F9FAFB"/><path d="M175.508 10.607c0-.887.719-1.607 1.607-1.607h65.104c.887 0 1.607.72 1.607 1.607v24.376c0 .888-.72 1.607-1.607 1.607h-65.104c-.888 0-1.607-.72-1.607-1.607V10.607z" fill="#A4CAFE"/><path fill-rule="evenodd" clip-rule="evenodd" d="M195.209 17.438a1 1 0 01.108 1.41l-7.215 8.417a1.804 1.804 0 01-2.837-.125l-2.688-3.764a1 1 0 011.627-1.162l2.543 3.56 7.052-8.228a1 1 0 011.41-.108z" fill="#F9FAFB"/><path d="M200.471 23a1 1 0 011-1h34.786a1 1 0 110 2h-34.786a1 1 0 01-1-1z" fill="#F9FAFB"/><path d="M240.502 223.177c-24.017 116.36-91.668 167.525-123.984 179.291-1.021.372-2.07.532-3.157.532H76.653c-1.018 0-1.418-1.354-.559-1.898 20.551-13.027 62.22-46.972 86.908-93.774 32.5-61.611 32-110.699 43-145.762 8.8-28.051 26.667-36.065 34.5-36.566h43.5c-28.4 0-38.744 75.135-43.5 98.177z" fill="#E1EFFE"/><path d="M240.502 223.177c-24.017 116.36-91.668 167.525-123.984 179.291-1.021.372-2.07.532-3.157.532H76.653c-1.018 0-1.418-1.354-.559-1.898 20.551-13.027 62.22-46.972 86.908-93.774 32.5-61.611 32-110.699 43-145.762 8.8-28.051 26.667-36.065 34.5-36.566h43.5c-28.4 0-38.744 75.135-43.5 98.177z" fill="url(#paint12_linear_1_7817)" fill-opacity=".5"/><path fill-rule="evenodd" clip-rule="evenodd" d="M246.219 149.066a.647.647 0 01-.071-.912l4.671-5.449a1.167 1.167 0 011.836.081l1.74 2.436a.648.648 0 01-1.053.753l-1.646-2.304-4.565 5.325a.646.646 0 01-.912.07z" fill="#76A9FA"/><path d="M242.813 145.466c0 .357-.29.647-.648.647h-22.516a.648.648 0 110-1.294h22.516c.358 0 .648.29.648.647z" fill="#76A9FA"/><path fill-rule="evenodd" clip-rule="evenodd" d="M239.219 169.066a.647.647 0 01-.071-.912l4.671-5.449a1.167 1.167 0 011.836.081l1.74 2.436a.648.648 0 01-1.053.753l-1.646-2.304-4.565 5.325a.646.646 0 01-.912.07z" fill="#76A9FA"/><path d="M235.813 165.466c0 .357-.29.647-.648.647h-22.516a.648.648 0 110-1.294h22.516c.358 0 .648.29.648.647z" fill="#76A9FA"/><path fill-rule="evenodd" clip-rule="evenodd" d="M234.219 189.066a.647.647 0 01-.071-.912l4.671-5.449a1.167 1.167 0 011.836.081l1.74 2.436a.648.648 0 01-1.053.753l-1.646-2.304-4.565 5.325a.646.646 0 01-.912.07z" fill="#76A9FA"/><path d="M230.813 185.466c0 .357-.29.647-.648.647h-22.516a.648.648 0 110-1.294h22.516c.358 0 .648.29.648.647z" fill="#76A9FA"/><path fill-rule="evenodd" clip-rule="evenodd" d="M226.219 229.066a.647.647 0 01-.071-.912l4.671-5.449a1.167 1.167 0 011.836.081l1.74 2.436a.648.648 0 01-1.053.753l-1.646-2.304-4.565 5.325a.646.646 0 01-.912.07z" fill="#76A9FA"/><path d="M222.813 225.466c0 .357-.29.647-.648.647h-22.516a.648.648 0 110-1.294h22.516c.358 0 .648.29.648.647z" fill="#76A9FA"/><path fill-rule="evenodd" clip-rule="evenodd" d="M222.219 249.066a.647.647 0 01-.071-.912l4.671-5.449a1.167 1.167 0 011.836.081l1.74 2.436a.648.648 0 01-1.053.753l-1.646-2.304-4.565 5.325a.646.646 0 01-.912.07z" fill="#76A9FA"/><path d="M218.813 245.466c0 .357-.29.647-.648.647h-22.516a.648.648 0 110-1.294h22.516c.358 0 .648.29.648.647z" fill="#76A9FA"/><path fill-rule="evenodd" clip-rule="evenodd" d="M215.219 269.066a.647.647 0 01-.071-.912l4.671-5.449a1.167 1.167 0 011.836.081l1.74 2.436a.648.648 0 01-1.053.753l-1.646-2.304-4.565 5.325a.646.646 0 01-.912.07z" fill="#76A9FA"/><path d="M211.813 265.466c0 .357-.29.647-.648.647h-22.516a.648.648 0 110-1.294h22.516c.358 0 .648.29.648.647z" fill="#76A9FA"/><path fill-rule="evenodd" clip-rule="evenodd" d="M197.219 309.066a.647.647 0 01-.071-.912l4.671-5.449a1.167 1.167 0 011.836.081l1.74 2.436a.648.648 0 01-1.053.753l-1.646-2.304-4.565 5.325a.646.646 0 01-.912.07z" fill="#76A9FA"/><path d="M193.813 305.466c0 .357-.29.647-.648.647h-22.516a.648.648 0 110-1.294h22.516c.358 0 .648.29.648.647z" fill="#76A9FA"/><path fill-rule="evenodd" clip-rule="evenodd" d="M187.219 329.066a.647.647 0 01-.071-.912l4.671-5.449a1.167 1.167 0 011.836.081l1.74 2.436a.648.648 0 01-1.053.753l-1.646-2.304-4.565 5.325a.646.646 0 01-.912.07z" fill="#76A9FA"/><path d="M183.813 325.466c0 .357-.29.647-.648.647h-22.516a.648.648 0 110-1.294h22.516c.358 0 .648.29.648.647z" fill="#76A9FA"/><path fill-rule="evenodd" clip-rule="evenodd" d="M173.219 349.066a.647.647 0 01-.071-.912l4.671-5.449a1.167 1.167 0 011.836.081l1.74 2.436a.648.648 0 01-1.053.753l-1.646-2.304-4.565 5.325a.646.646 0 01-.912.07z" fill="#76A9FA"/><path d="M169.813 345.466c0 .357-.29.647-.648.647h-22.516a.648.648 0 110-1.294h22.516c.358 0 .648.29.648.647z" fill="#76A9FA"/><defs><linearGradient id="paint0_linear_1_7817" x1="328.002" y1="0" x2="328.002" y2="378" gradientUnits="userSpaceOnUse"><stop stop-color="#E1EFFE"/><stop offset="1" stop-color="#E1EFFE" stop-opacity="0"/></linearGradient><linearGradient id="paint1_linear_1_7817" x1="598.002" y1="-82.5" x2="333.421" y2="-166.998" gradientUnits="userSpaceOnUse"><stop stop-color="#111928"/><stop offset="1" stop-color="#111928" stop-opacity="0"/></linearGradient><linearGradient id="paint2_linear_1_7817" x1="385.002" y1="255" x2="330.617" y2="169.856" gradientUnits="userSpaceOnUse"><stop stop-color="#A4CAFE"/><stop offset="1" stop-color="#A4CAFE" stop-opacity="0"/></linearGradient><linearGradient id="paint3_linear_1_7817" x1="384.786" y1="118.92" x2="389.361" y2="152.011" gradientUnits="userSpaceOnUse"><stop stop-color="#7F270F"/><stop offset="1" stop-color="#7F270F" stop-opacity="0"/></linearGradient><linearGradient id="paint4_linear_1_7817" x1="393.002" y1="1.5" x2="279.818" y2="20.445" gradientUnits="userSpaceOnUse"><stop stop-color="#111928"/><stop offset="1" stop-color="#111928" stop-opacity="0"/></linearGradient><linearGradient id="paint5_linear_1_7817" x1="421.504" y1="239" x2="448.606" y2="298.071" gradientUnits="userSpaceOnUse"><stop stop-color="#A4CAFE"/><stop offset="1" stop-color="#A4CAFE" stop-opacity="0"/></linearGradient><linearGradient id="paint6_linear_1_7817" x1="376.504" y1="281.5" x2="369.292" y2="243.828" gradientUnits="userSpaceOnUse"><stop stop-color="#A4CAFE"/><stop offset="1" stop-color="#A4CAFE" stop-opacity="0"/></linearGradient><linearGradient id="paint7_linear_1_7817" x1="397.851" y1="170.172" x2="396.124" y2="156.768" gradientUnits="userSpaceOnUse"><stop stop-color="#A4CAFE"/><stop offset="1" stop-color="#A4CAFE" stop-opacity="0"/></linearGradient><linearGradient id="paint8_linear_1_7817" x1="556.002" y1="458.5" x2="303.502" y2="257.5" gradientUnits="userSpaceOnUse"><stop stop-color="#E1EFFE"/><stop offset="1" stop-color="#E1EFFE" stop-opacity="0"/></linearGradient><linearGradient id="paint9_linear_1_7817" x1="329.502" y1="10" x2="387.502" y2="208" gradientUnits="userSpaceOnUse"><stop stop-color="#1C64F2"/><stop offset="1" stop-color="#1C64F2" stop-opacity="0"/></linearGradient><linearGradient id="paint10_linear_1_7817" x1="458.002" y1="383" x2="387.502" y2="234.5" gradientUnits="userSpaceOnUse"><stop stop-color="#7F270F"/><stop offset="1" stop-color="#7F270F" stop-opacity="0"/></linearGradient><linearGradient id="paint11_linear_1_7817" x1="324.826" y1="257.763" x2="266.643" y2="189.301" gradientUnits="userSpaceOnUse"><stop stop-color="#7F270F"/><stop offset="1" stop-color="#7F270F" stop-opacity="0"/></linearGradient><linearGradient id="paint12_linear_1_7817" x1="143.503" y1="-117.5" x2="225.757" y2="243.308" gradientUnits="userSpaceOnUse"><stop stop-color="#1C64F2"/><stop offset="1" stop-color="#1C64F2" stop-opacity="0"/></linearGradient></defs></svg>