<svg width="610" height="258" fill="none" xmlns="http://www.w3.org/2000/svg"><path d="M1.035 165.209A2 2 0 013.025 163H104.58a2 2 0 011.989 2.209l-9.579 91A2 2 0 0195.002 258H12.603a2 2 0 01-1.989-1.791l-9.579-91z" fill="#E1EFFE"/><path d="M33.803 163h39l-2.604-38.216C69.594 115.898 62.209 109 53.303 109c-8.907 0-16.291 6.898-16.896 15.784L33.803 163z" fill="#E1EFFE"/><path d="M33.803 163h39l-2.604-38.216C69.594 115.898 62.209 109 53.303 109c-8.907 0-16.291 6.898-16.896 15.784L33.803 163z" fill="url(#paint0_linear_1_7798)"/><path d="M372.803 4a4 4 0 014-4h188a4 4 0 014 4v35a4 4 0 01-4 4h-188a4 4 0 01-4-4V4z" fill="#E1EFFE"/><path d="M372.803 4a4 4 0 014-4h188a4 4 0 014 4v35a4 4 0 01-4 4h-188a4 4 0 01-4-4V4z" fill="url(#paint1_linear_1_7798)"/><path fill-rule="evenodd" clip-rule="evenodd" d="M383.803 29.5V13h2v16.5h-2zm6 0V13h2v16.5h-2zm6 0V13h2v16.5h-2zm6 0V13h2v16.5h-2zm6 0V13h2v16.5h-2zm6 0V13h2v16.5h-2zm6 0V13h2v16.5h-2zm6 0V13h2v16.5h-2zm6 0V13h2v16.5h-2zm6 0V13h2v16.5h-2zm6 0V13h2v16.5h-2zm6 0V13h2v16.5h-2zm6 0V13h2v16.5h-2zm6 0V13h2v16.5h-2zm6 0V13h2v16.5h-2zm6 0V13h2v16.5h-2zm35-4.5a3 3 0 100-6 3 3 0 000 6zm0 1a4 4 0 100-8 4 4 0 000 8z" fill="#A4CAFE"/><path d="M530.803 22a4 4 0 11-8 0 4 4 0 018 0zm18 0a4 4 0 11-8 0 4 4 0 018 0z" fill="#A4CAFE"/><path fill-rule="evenodd" clip-rule="evenodd" d="M577.801 24.385c-1.639-.92-3.44-1.312-4.565-1.387l.133-1.996c1.375.092 3.474.55 5.411 1.639 1.95 1.096 3.807 2.875 4.493 5.617.566 2.262.993 5.7 1.449 9.37.164 1.315.331 2.659.509 3.99.693 5.163 1.555 10.112 2.966 12.935l-1.789.894c-1.588-3.176-2.476-8.477-3.159-13.564-.189-1.409-.362-2.804-.529-4.147-.45-3.616-.854-6.858-1.387-8.993-.515-2.058-1.908-3.446-3.532-4.358z" fill="#A4CAFE"/><path fill-rule="evenodd" clip-rule="evenodd" d="M577.801 24.385c-1.639-.92-3.44-1.312-4.565-1.387l.133-1.996c1.375.092 3.474.55 5.411 1.639 1.95 1.096 3.807 2.875 4.493 5.617.566 2.262.993 5.7 1.449 9.37.164 1.315.331 2.659.509 3.99.693 5.163 1.555 10.112 2.966 12.935l-1.789.894c-1.588-3.176-2.476-8.477-3.159-13.564-.189-1.409-.362-2.804-.529-4.147-.45-3.616-.854-6.858-1.387-8.993-.515-2.058-1.908-3.446-3.532-4.358z" fill="url(#paint2_linear_1_7798)"/><path fill-rule="evenodd" clip-rule="evenodd" d="M584.304 83.032c-.386-11.957-7.523-17.035-10.804-18.08l.606-1.905c4.052 1.29 11.782 7.078 12.197 19.92.209 6.478 2.567 13.23 5.265 20.951.45 1.287.909 2.601 1.369 3.945 3.197 9.34 6.366 19.967 6.366 32.637h-2c0-12.331-3.08-22.704-6.258-31.989-.45-1.314-.903-2.609-1.351-3.888-2.691-7.693-5.171-14.78-5.39-21.591z" fill="#A4CAFE"/><path fill-rule="evenodd" clip-rule="evenodd" d="M584.304 83.032c-.386-11.957-7.523-17.035-10.804-18.08l.606-1.905c4.052 1.29 11.782 7.078 12.197 19.92.209 6.478 2.567 13.23 5.265 20.951.45 1.287.909 2.601 1.369 3.945 3.197 9.34 6.366 19.967 6.366 32.637h-2c0-12.331-3.08-22.704-6.258-31.989-.45-1.314-.903-2.609-1.351-3.888-2.691-7.693-5.171-14.78-5.39-21.591z" fill="url(#paint3_linear_1_7798)"/><path fill-rule="evenodd" clip-rule="evenodd" d="M577.592 110.57c-1.625-1.296-3.522-1.643-4.73-1.572l-.118-1.996c1.626-.096 4.028.357 6.095 2.004 2.101 1.674 3.751 4.501 3.963 8.947.249 5.235.746 12.553 2.17 19.856 1.428 7.324 3.766 14.518 7.626 19.585 3.347 4.393 5.631 11.714 7.146 18.925 1.524 7.257 2.305 14.583 2.557 19.125l-1.997.111c-.247-4.457-1.017-11.681-2.517-18.824-1.51-7.189-3.726-14.118-6.78-18.125-4.139-5.433-6.551-12.989-7.998-20.415-1.452-7.447-1.954-14.879-2.205-20.143-.188-3.955-1.622-6.211-3.212-7.478z" fill="#A4CAFE"/><path fill-rule="evenodd" clip-rule="evenodd" d="M577.592 110.57c-1.625-1.296-3.522-1.643-4.73-1.572l-.118-1.996c1.626-.096 4.028.357 6.095 2.004 2.101 1.674 3.751 4.501 3.963 8.947.249 5.235.746 12.553 2.17 19.856 1.428 7.324 3.766 14.518 7.626 19.585 3.347 4.393 5.631 11.714 7.146 18.925 1.524 7.257 2.305 14.583 2.557 19.125l-1.997.111c-.247-4.457-1.017-11.681-2.517-18.824-1.51-7.189-3.726-14.118-6.78-18.125-4.139-5.433-6.551-12.989-7.998-20.415-1.452-7.447-1.954-14.879-2.205-20.143-.188-3.955-1.622-6.211-3.212-7.478z" fill="url(#paint4_linear_1_7798)"/><path fill-rule="evenodd" clip-rule="evenodd" d="M576.409 154.345c-1.162-1.29-2.229-2.091-3.004-2.428l.798-1.834c1.141.496 2.433 1.525 3.692 2.923 1.274 1.413 2.565 3.259 3.688 5.466 2.246 4.414 3.836 10.31 3.217 17.119-.613 6.744-2.455 11.056-4.584 13.896-2.131 2.844-4.491 4.128-5.944 4.897l-.936-1.768c1.38-.73 3.42-1.846 5.28-4.328 1.863-2.485 3.605-6.423 4.192-12.878.581-6.392-.912-11.912-3.008-16.031-1.048-2.061-2.242-3.76-3.391-5.034z" fill="#A4CAFE"/><path fill-rule="evenodd" clip-rule="evenodd" d="M576.409 154.345c-1.162-1.29-2.229-2.091-3.004-2.428l.798-1.834c1.141.496 2.433 1.525 3.692 2.923 1.274 1.413 2.565 3.259 3.688 5.466 2.246 4.414 3.836 10.31 3.217 17.119-.613 6.744-2.455 11.056-4.584 13.896-2.131 2.844-4.491 4.128-5.944 4.897l-.936-1.768c1.38-.73 3.42-1.846 5.28-4.328 1.863-2.485 3.605-6.423 4.192-12.878.581-6.392-.912-11.912-3.008-16.031-1.048-2.061-2.242-3.76-3.391-5.034z" fill="url(#paint5_linear_1_7798)"/><path fill-rule="evenodd" clip-rule="evenodd" d="M579.359 239.425c-2.606-1.075-5.101-1.425-6.556-1.425v-2c1.711 0 4.466.4 7.318 1.575 2.86 1.179 5.876 3.163 8.014 6.37.181.271.356.537.528.798 1.7 2.571 3.067 4.639 5.668 6.337 2.873 1.876 7.344 3.344 15.572 4.17l-.2 1.99c-8.345-.838-13.195-2.35-16.465-4.485-2.965-1.935-4.553-4.345-6.229-6.887l-.538-.813c-1.862-2.793-4.514-4.559-7.112-5.63z" fill="#A4CAFE"/><path fill-rule="evenodd" clip-rule="evenodd" d="M579.359 239.425c-2.606-1.075-5.101-1.425-6.556-1.425v-2c1.711 0 4.466.4 7.318 1.575 2.86 1.179 5.876 3.163 8.014 6.37.181.271.356.537.528.798 1.7 2.571 3.067 4.639 5.668 6.337 2.873 1.876 7.344 3.344 15.572 4.17l-.2 1.99c-8.345-.838-13.195-2.35-16.465-4.485-2.965-1.935-4.553-4.345-6.229-6.887l-.538-.813c-1.862-2.793-4.514-4.559-7.112-5.63z" fill="url(#paint6_linear_1_7798)"/><path d="M372.803 47a4 4 0 014-4h188a4 4 0 014 4v35a4 4 0 01-4 4h-188a4 4 0 01-4-4V47z" fill="#E1EFFE"/><path d="M372.803 47a4 4 0 014-4h188a4 4 0 014 4v35a4 4 0 01-4 4h-188a4 4 0 01-4-4V47z" fill="url(#paint7_linear_1_7798)"/><path fill-rule="evenodd" clip-rule="evenodd" d="M383.803 72.5V56h2v16.5h-2zm6 0V56h2v16.5h-2zm6 0V56h2v16.5h-2zm6 0V56h2v16.5h-2zm6 0V56h2v16.5h-2zm6 0V56h2v16.5h-2zm6 0V56h2v16.5h-2zm6 0V56h2v16.5h-2zm6 0V56h2v16.5h-2zm6 0V56h2v16.5h-2zm6 0V56h2v16.5h-2zm6 0V56h2v16.5h-2zm6 0V56h2v16.5h-2zm6 0V56h2v16.5h-2zm6 0V56h2v16.5h-2zm6 0V56h2v16.5h-2z" fill="#A4CAFE"/><path d="M512.803 65a4 4 0 11-8 0 4 4 0 018 0z" fill="#A4CAFE"/><path fill-rule="evenodd" clip-rule="evenodd" d="M526.803 68a3 3 0 100-6 3 3 0 000 6zm0 1a4 4 0 100-8 4 4 0 000 8zm18-1a3 3 0 100-6 3 3 0 000 6zm0 1a4 4 0 100-8 4 4 0 000 8z" fill="#A4CAFE"/><path d="M372.803 90a4 4 0 014-4h188a4 4 0 014 4v35a4 4 0 01-4 4h-188a4 4 0 01-4-4V90z" fill="#E1EFFE"/><path d="M372.803 90a4 4 0 014-4h188a4 4 0 014 4v35a4 4 0 01-4 4h-188a4 4 0 01-4-4V90z" fill="url(#paint8_linear_1_7798)"/><path fill-rule="evenodd" clip-rule="evenodd" d="M383.803 115.5V99h2v16.5h-2zm6 0V99h2v16.5h-2zm6 0V99h2v16.5h-2zm6 0V99h2v16.5h-2zm6 0V99h2v16.5h-2zm6 0V99h2v16.5h-2zm6 0V99h2v16.5h-2zm6 0V99h2v16.5h-2zm6 0V99h2v16.5h-2zm6 0V99h2v16.5h-2zm6 0V99h2v16.5h-2zm6 0V99h2v16.5h-2zm6 0V99h2v16.5h-2zm6 0V99h2v16.5h-2zm6 0V99h2v16.5h-2zm6 0V99h2v16.5h-2z" fill="#A4CAFE"/><path d="M512.803 108a4 4 0 11-8 0 4 4 0 018 0zm18 0a4 4 0 11-8 0 4 4 0 018 0z" fill="#A4CAFE"/><path fill-rule="evenodd" clip-rule="evenodd" d="M544.803 111a3 3 0 100-6 3 3 0 000 6zm0 1a4 4 0 100-8 4 4 0 000 8z" fill="#A4CAFE"/><path d="M372.803 133a4 4 0 014-4h188a4 4 0 014 4v35a4 4 0 01-4 4h-188a4 4 0 01-4-4v-35z" fill="#E1EFFE"/><path d="M372.803 133a4 4 0 014-4h188a4 4 0 014 4v35a4 4 0 01-4 4h-188a4 4 0 01-4-4v-35z" fill="url(#paint9_linear_1_7798)"/><path fill-rule="evenodd" clip-rule="evenodd" d="M383.803 158.5V142h2v16.5h-2zm6 0V142h2v16.5h-2zm6 0V142h2v16.5h-2zm6 0V142h2v16.5h-2zm6 0V142h2v16.5h-2zm6 0V142h2v16.5h-2zm6 0V142h2v16.5h-2zm6 0V142h2v16.5h-2zm6 0V142h2v16.5h-2zm6 0V142h2v16.5h-2zm6 0V142h2v16.5h-2zm6 0V142h2v16.5h-2zm6 0V142h2v16.5h-2zm6 0V142h2v16.5h-2zm6 0V142h2v16.5h-2zm6 0V142h2v16.5h-2zm35-4.5a3 3 0 100-6 3 3 0 000 6zm0 1a4 4 0 100-8 4 4 0 000 8z" fill="#A4CAFE"/><path d="M530.803 151a4 4 0 11-8 0 4 4 0 018 0zm18 0a4 4 0 11-8 0 4 4 0 018 0z" fill="#A4CAFE"/><path d="M372.803 176a4 4 0 014-4h188a4 4 0 014 4v35a4 4 0 01-4 4h-188a4 4 0 01-4-4v-35z" fill="#E1EFFE"/><path d="M372.803 176a4 4 0 014-4h188a4 4 0 014 4v35a4 4 0 01-4 4h-188a4 4 0 01-4-4v-35z" fill="url(#paint10_linear_1_7798)"/><path fill-rule="evenodd" clip-rule="evenodd" d="M383.803 201.5V185h2v16.5h-2zm6 0V185h2v16.5h-2zm6 0V185h2v16.5h-2zm6 0V185h2v16.5h-2zm6 0V185h2v16.5h-2zm6 0V185h2v16.5h-2zm6 0V185h2v16.5h-2zm6 0V185h2v16.5h-2zm6 0V185h2v16.5h-2zm6 0V185h2v16.5h-2zm6 0V185h2v16.5h-2zm6 0V185h2v16.5h-2zm6 0V185h2v16.5h-2zm6 0V185h2v16.5h-2zm6 0V185h2v16.5h-2zm6 0V185h2v16.5h-2z" fill="#A4CAFE"/><path d="M512.803 194a4 4 0 11-8 0 4 4 0 018 0z" fill="#A4CAFE"/><path fill-rule="evenodd" clip-rule="evenodd" d="M526.803 197a3 3 0 100-6 3 3 0 000 6zm0 1a4 4 0 100-8 4 4 0 000 8z" fill="#A4CAFE"/><path d="M548.803 194a4 4 0 11-8 0 4 4 0 018 0z" fill="#A4CAFE"/><path d="M372.803 219a4 4 0 014-4h188a4 4 0 014 4v35a4 4 0 01-4 4h-188a4 4 0 01-4-4v-35z" fill="#E1EFFE"/><path d="M372.803 219a4 4 0 014-4h188a4 4 0 014 4v35a4 4 0 01-4 4h-188a4 4 0 01-4-4v-35z" fill="url(#paint11_linear_1_7798)"/><path fill-rule="evenodd" clip-rule="evenodd" d="M383.803 244.5V228h2v16.5h-2zm6 0V228h2v16.5h-2zm6 0V228h2v16.5h-2zm6 0V228h2v16.5h-2zm6 0V228h2v16.5h-2zm6 0V228h2v16.5h-2zm6 0V228h2v16.5h-2zm6 0V228h2v16.5h-2zm6 0V228h2v16.5h-2zm6 0V228h2v16.5h-2zm6 0V228h2v16.5h-2zm6 0V228h2v16.5h-2zm6 0V228h2v16.5h-2zm6 0V228h2v16.5h-2zm6 0V228h2v16.5h-2zm6 0V228h2v16.5h-2zm35-4.5a3 3 0 100-6 3 3 0 000 6zm0 1a4 4 0 100-8 4 4 0 000 8z" fill="#A4CAFE"/><path d="M530.803 237a4 4 0 11-8 0 4 4 0 018 0z" fill="#A4CAFE"/><path fill-rule="evenodd" clip-rule="evenodd" d="M544.803 240a3 3 0 100-6 3 3 0 000 6zm0 1a4 4 0 100-8 4 4 0 000 8z" fill="#A4CAFE"/><path d="M568.803 17h4a2 2 0 012 2v6a2 2 0 01-2 2h-4V17zm0 42h4a2 2 0 012 2v6a2 2 0 01-2 2h-4V59zm0 44h4a2 2 0 012 2v6a2 2 0 01-2 2h-4v-10zm0 43h4a2 2 0 012 2v6a2 2 0 01-2 2h-4v-10zm0 42h4a2 2 0 012 2v6a2 2 0 01-2 2h-4v-10zm0 44h4a2 2 0 012 2v6a2 2 0 01-2 2h-4v-10z" fill="#A4CAFE"/><path fill-rule="evenodd" clip-rule="evenodd" d="M583.342 63.725l1-3.5 1.923.55-1 3.5-1.923-.55zm5.48-.529l-.5-2.5 1.961-.392.5 2.5-1.961.392zm5.356-3.415l-2.5-2 1.249-1.562 2.5 2-1.249 1.562zm-2.157 85.094l2-2.5 1.562 1.25-2 2.5-1.562-1.25zm5.782 2.625v-4h2v4h-2zm5.142-1.486l-1.5-2.5 1.715-1.029 1.5 2.5-1.715 1.029zm-8.941 54.886l3-4 1.6 1.2-3 4-1.6-1.2zm7.305 3.699l-.5-5 1.99-.199.5 5-1.99.199zm5.662-4.044l-1-1.5 1.664-1.11 1 1.5-1.664 1.11z" fill="#A4CAFE" fill-opacity=".4"/><rect x="68.803" y="248" width="358" height="10" rx="2" fill="#A4CAFE"/><path d="M85.803 51a2 2 0 012-2h319a2 2 0 012 2v197h-323V51z" fill="#E1EFFE"/><path d="M85.803 51a2 2 0 012-2h319a2 2 0 012 2v197h-323V51z" fill="url(#paint12_linear_1_7798)"/><path fill-rule="evenodd" clip-rule="evenodd" d="M84.303 51a3.5 3.5 0 013.5-3.5h319a3.5 3.5 0 013.5 3.5v197h-3V51a.5.5 0 00-.5-.5h-319a.5.5 0 00-.5.5v197h-3V51z" fill="#1627A7"/><path fill-rule="evenodd" clip-rule="evenodd" d="M84.303 51a3.5 3.5 0 013.5-3.5h319a3.5 3.5 0 013.5 3.5v197h-3V51a.5.5 0 00-.5-.5h-319a.5.5 0 00-.5.5v197h-3V51z" fill="url(#paint13_linear_1_7798)"/><path d="M204.803 248h85v4a2 2 0 01-2 2h-81a2 2 0 01-2-2v-4z" fill="url(#paint14_linear_1_7798)"/><path d="M236.893 86.874A10 10 0 01245.479 82h2.647a10 10 0 018.587 4.874l68.059 114c3.98 6.665-.823 15.126-8.586 15.126H177.419c-7.763 0-12.565-8.461-8.586-15.126l68.06-114z" fill="#1627A7"/><path d="M251.229 128l-.597 43.909h-6.92L243.115 128h8.114zm-4.057 61.568c-1.472 0-2.734-.527-3.788-1.581-1.054-1.054-1.581-2.317-1.581-3.788 0-1.472.527-2.735 1.581-3.788 1.054-1.054 2.316-1.581 3.788-1.581s2.734.527 3.788 1.581c1.054 1.053 1.581 2.316 1.581 3.788 0 .974-.248 1.869-.745 2.685a5.58 5.58 0 01-1.939 1.968c-.796.478-1.691.716-2.685.716z" fill="#E1EFFE"/><defs><linearGradient id="paint0_linear_1_7798" x1="53.303" y1="222" x2="53.303" y2="109" gradientUnits="userSpaceOnUse"><stop stop-color="#A4CAFE"/><stop offset="1" stop-color="#A4CAFE" stop-opacity="0"/></linearGradient><linearGradient id="paint1_linear_1_7798" x1="470.803" y1="64.5" x2="470.803" y2="22" gradientUnits="userSpaceOnUse"><stop stop-color="#A4CAFE"/><stop offset="1" stop-color="#A4CAFE" stop-opacity="0"/></linearGradient><linearGradient id="paint2_linear_1_7798" x1="580.303" y1="22" x2="583.363" y2="42.818" gradientUnits="userSpaceOnUse"><stop stop-color="#76A9FA"/><stop offset="1" stop-color="#76A9FA" stop-opacity="0"/></linearGradient><linearGradient id="paint3_linear_1_7798" x1="586.053" y1="64" x2="595.303" y2="111.5" gradientUnits="userSpaceOnUse"><stop stop-color="#76A9FA"/><stop offset="1" stop-color="#76A9FA" stop-opacity="0"/></linearGradient><linearGradient id="paint4_linear_1_7798" x1="587.053" y1="107.99" x2="597.471" y2="162.392" gradientUnits="userSpaceOnUse"><stop stop-color="#76A9FA"/><stop offset="1" stop-color="#76A9FA" stop-opacity="0"/></linearGradient><linearGradient id="paint5_linear_1_7798" x1="578.869" y1="151" x2="585.576" y2="176.635" gradientUnits="userSpaceOnUse"><stop stop-color="#76A9FA"/><stop offset="1" stop-color="#76A9FA" stop-opacity="0"/></linearGradient><linearGradient id="paint6_linear_1_7798" x1="591.303" y1="237" x2="591.705" y2="249.39" gradientUnits="userSpaceOnUse"><stop stop-color="#76A9FA"/><stop offset="1" stop-color="#76A9FA" stop-opacity="0"/></linearGradient><linearGradient id="paint7_linear_1_7798" x1="470.803" y1="107.5" x2="470.803" y2="65" gradientUnits="userSpaceOnUse"><stop stop-color="#A4CAFE"/><stop offset="1" stop-color="#A4CAFE" stop-opacity="0"/></linearGradient><linearGradient id="paint8_linear_1_7798" x1="470.803" y1="150.5" x2="470.803" y2="108" gradientUnits="userSpaceOnUse"><stop stop-color="#A4CAFE"/><stop offset="1" stop-color="#A4CAFE" stop-opacity="0"/></linearGradient><linearGradient id="paint9_linear_1_7798" x1="470.803" y1="193.5" x2="470.803" y2="151" gradientUnits="userSpaceOnUse"><stop stop-color="#A4CAFE"/><stop offset="1" stop-color="#A4CAFE" stop-opacity="0"/></linearGradient><linearGradient id="paint10_linear_1_7798" x1="470.803" y1="236.5" x2="470.803" y2="194" gradientUnits="userSpaceOnUse"><stop stop-color="#A4CAFE"/><stop offset="1" stop-color="#A4CAFE" stop-opacity="0"/></linearGradient><linearGradient id="paint11_linear_1_7798" x1="470.803" y1="279.5" x2="470.803" y2="237" gradientUnits="userSpaceOnUse"><stop stop-color="#A4CAFE"/><stop offset="1" stop-color="#A4CAFE" stop-opacity="0"/></linearGradient><linearGradient id="paint12_linear_1_7798" x1="247.303" y1="-140" x2="247.303" y2="248" gradientUnits="userSpaceOnUse"><stop stop-color="#76A9FA"/><stop offset="1" stop-color="#76A9FA" stop-opacity="0"/></linearGradient><linearGradient id="paint13_linear_1_7798" x1="247.303" y1="-18" x2="247.303" y2="248" gradientUnits="userSpaceOnUse"><stop stop-color="#76A9FA"/><stop offset="1" stop-color="#76A9FA" stop-opacity="0"/></linearGradient><linearGradient id="paint14_linear_1_7798" x1="247.303" y1="276.125" x2="247.303" y2="248" gradientUnits="userSpaceOnUse"><stop stop-color="#1C64F2"/><stop offset="1" stop-color="#1C64F2" stop-opacity="0"/></linearGradient></defs></svg>