<svg width="601" height="548" fill="none" xmlns="http://www.w3.org/2000/svg"><path d="M572.029 274c0 151.326-122.674 274-274 274s-274-122.674-274-274S146.703 0 298.03 0s274 122.674 274 274z" fill="#E1EFFE"/><path d="M572.029 274c0 151.326-122.674 274-274 274s-274-122.674-274-274S146.703 0 298.03 0s274 122.674 274 274z" fill="url(#paint0_linear_2134_16309)"/><path d="M502.029 390h-66.5c33.2-63.2 123.5-116.667 164.5-135.5-25.6 62.8-76 116.5-98 135.5z" fill="#1627A7" fill-opacity=".3"/><path d="M445.529 390h-66.5c33.2-63.2 130-199.5 183-242.5-17.5 83.5-94.5 223.5-116.5 242.5zM98.03 390h66.499c-33.2-63.2-123.5-116.667-164.5-135.5 25.6 62.8 76 116.5 98 135.5z" fill="#1627A7" fill-opacity=".3"/><path d="M154.529 390h66.5c-33.2-63.2-130-199.5-183-242.5C55.53 231 132.53 371 154.53 390z" fill="#1627A7" fill-opacity=".3"/><path fill-rule="evenodd" clip-rule="evenodd" d="M546.802 389c-43.47 93.878-138.515 159-248.771 159S92.73 482.878 49.26 389h497.542z" fill="url(#paint1_linear_2134_16309)"/><path d="M219.029 253h270l-50 186h-270l50-186z" fill="#1627A7"/><path d="M219.029 253h270l-50 186h-270l50-186z" fill="url(#paint2_linear_2134_16309)"/><path d="M205.701 139.852l64.184 14.54 5.446 22.766 186.131 42.168-35.573 157.021-260.401-58.994 40.213-177.501z" fill="#E1EFFE"/><path d="M205.701 139.852l64.184 14.54 5.446 22.766 186.131 42.168-35.573 157.021-260.401-58.994 40.213-177.501z" fill="url(#paint3_linear_2134_16309)"/><path fill-rule="evenodd" clip-rule="evenodd" d="M247.848 164.267l-34.623-7.844.442-1.95 34.623 7.843-.442 1.951z" fill="#1627A7"/><path d="M183.002 172.879l65.271 8.407 7.574 22.149 189.285 24.379-20.566 159.681-264.813-34.107 23.249-180.509z" fill="#E1EFFE"/><path d="M183.002 172.879l65.271 8.407 7.574 22.149 189.285 24.379-20.566 159.681-264.813-34.107 23.249-180.509z" fill="url(#paint4_linear_2134_16309)"/><path fill-rule="evenodd" clip-rule="evenodd" d="M227.269 193.202l-35.209-4.535.255-1.983 35.21 4.534-.256 1.984z" fill="#1627A7"/><path d="M158.029 213h65.81l10.342 21h190.848v161h-267V213z" fill="#E1EFFE"/><path d="M158.029 213h65.81l10.342 21h190.848v161h-267V213z" fill="url(#paint5_linear_2134_16309)"/><path fill-rule="evenodd" clip-rule="evenodd" d="M204.529 227.5h-35.5v-2h35.5v2z" fill="#1627A7"/><path d="M119.029 253h270l50 186h-270l-50-186z" fill="#E1EFFE"/><path d="M119.029 253h270l50 186h-270l-50-186z" fill="url(#paint6_linear_2134_16309)"/><path d="M119.029 253h270l50 186h-270l-50-186z" fill="url(#paint7_linear_2134_16309)"/><path d="M119.029 253h270l50 186h-270l-50-186z" fill="url(#paint8_linear_2134_16309)"/><defs><linearGradient id="paint0_linear_2134_16309" x1="298.843" y1="240.534" x2="298.843" y2="765.003" gradientUnits="userSpaceOnUse"><stop stop-color="#fff" stop-opacity="0"/><stop offset="1" stop-color="#fff"/></linearGradient><linearGradient id="paint1_linear_2134_16309" x1="306.234" y1="514.721" x2="306.234" y2="269.195" gradientUnits="userSpaceOnUse"><stop stop-color="#1627A7" stop-opacity="0"/><stop offset="1" stop-color="#1627A7"/></linearGradient><linearGradient id="paint2_linear_2134_16309" x1="444.029" y1="262.5" x2="432.529" y2="439" gradientUnits="userSpaceOnUse"><stop stop-color="#111928" stop-opacity="0"/><stop offset="1" stop-color="#111928"/></linearGradient><linearGradient id="paint3_linear_2134_16309" x1="372.529" y1="39.002" x2="311.267" y2="278.085" gradientUnits="userSpaceOnUse"><stop stop-color="#1627A7" stop-opacity="0"/><stop offset="1" stop-color="#1627A7"/></linearGradient><linearGradient id="paint4_linear_2134_16309" x1="341.529" y1="97.499" x2="244.029" y2="371.499" gradientUnits="userSpaceOnUse"><stop stop-color="#1627A7" stop-opacity="0"/><stop offset="1" stop-color="#1627A7"/></linearGradient><linearGradient id="paint5_linear_2134_16309" x1="326.529" y1="201" x2="273.029" y2="379.5" gradientUnits="userSpaceOnUse"><stop stop-color="#1627A7" stop-opacity="0"/><stop offset="1" stop-color="#1627A7"/></linearGradient><linearGradient id="paint6_linear_2134_16309" x1="279.029" y1="414.904" x2="279.029" y2="239.07" gradientUnits="userSpaceOnUse"><stop stop-color="#fff" stop-opacity="0"/><stop offset="1" stop-color="#fff"/></linearGradient><linearGradient id="paint7_linear_2134_16309" x1="279.029" y1="255.914" x2="279.029" y2="482.465" gradientUnits="userSpaceOnUse"><stop stop-color="#1627A7" stop-opacity="0"/><stop offset="1" stop-color="#A4CAFE"/></linearGradient><linearGradient id="paint8_linear_2134_16309" x1="279.029" y1="359.105" x2="279.029" y2="458.445" gradientUnits="userSpaceOnUse"><stop stop-color="#fff" stop-opacity="0"/><stop offset="1" stop-color="#fff"/></linearGradient></defs></svg>