<svg width="621" height="621" fill="none" xmlns="http://www.w3.org/2000/svg"><path d="M120.947 494.224a19.91 19.91 0 01-3.387 2.136c-9.882-4.78 6.737-16.612 10.402-23.496 2.358-4.428-1.672-7.392-1.805-11.336-.151-4.496 3.979-9.276 7.391-13.048 2.832-3.14 10.848-14.56 16.184-13.324 3.588.832 4.404 4.284 1.993 7.304-4.496 5.624-12.274 10.92-14.242 17.476-2.371 7.908 12.363 5.968-16.536 34.288zm-49.662-13.795c-7.658-7.848 12.01-13.324 17.777-18.552 3.73-3.368.924-7.515 2.156-11.287 1.395-4.284 6.86-7.393 11.338-9.769 3.744-1.996 15.15-9.996 19.744-7.028 3.08 1.996 2.716 5.528-.584 7.544-6.138 3.744-15.262 6.12-19.323 11.592-2.337 3.144-.287 5.972-1.5 9.112-2.183 5.644-10.944 10.16-16.982 13.28-2.861 1.468-5.762 2.929-8.737 4.265a17.462 17.462 0 01-3.889.843z" fill="#F5BF42"/><path d="M83.688 397.807a12.769 12.769 0 013.879 3.772 12.76 12.76 0 011.972 5.036 6.693 6.693 0 01.33 3.512c-.352.868-2.301-.924-2.65-1.148-6.013-4.12-7.057-5.344-8.006-4.66a16.245 16.245 0 00-2.928 4.66c-.037.54.844 1.232 1.149 1.572a36.34 36.34 0 004.45 4.332c.655.536 3.057 2.012 2.77 3.184-.19.772-1.539.924-2.105.984a13.84 13.84 0 01-6.513-.984 12.61 12.61 0 01-4.38-2.336 12.547 12.547 0 01-3.137-3.848 56.158 56.158 0 00-1.804-5.62 23.99 23.99 0 00-6.63-6.584 54.99 54.99 0 00-12.693-7.963c-2.624-.961-4.967.699-7.637.468-5.269-.452-12.437-8.197-10.75-14.589 0 0-.41-.308 4.028 2.879 2.845 2.044 4.884 4.003 8.314 2.882.656-.219 1.521-.354 1.946-.985.425-.632 0-1.5-.212-2.085a11.141 11.141 0 00-4.17-4.357c-.646-.468-.147-.13-3.325-2.482-.283-.21-3.144-1.996-2.436-2.578 3.581-2.934 9.466-1.127 12.647 1.478 3.26 2.667 3.695 6.978 6.35 10.002a47.338 47.338 0 008.409 6.371c3.652 2.621 7.212 5.715 11.085 7.963 2.107 1.216 3.797.351 5.974.117a11.25 11.25 0 016.073 1.007z" fill="#E3E5ED"/><path d="M264.849 262.335c18.393 15.824 40.955 20.043 62.304 30.143a100.979 100.979 0 0120.404 12.933c12.104-11.442 10.041-10.725 10.328-11.033a43.281 43.281 0 017.87 2.624c12.459 6.747 19.231 18.855 28.022 29.253a125.093 125.093 0 01-26.094 27.686c-3.788 2.978-8.292 7.2-13.241 7.871a23.314 23.314 0 01-12.296-3.35 237.407 237.407 0 01-43.474-26.747c-31.84-23.683-34.226-30.698-45.955-40.434-3.773-3.138-8.13-2.547-12.204-4.73-4.619-2.464-7.963-7.123-12.366-10.027-5.771-3.806-15.985-7.852-20.493-12.203a29.857 29.857 0 01-6.335-8.998c-1.881-4.083-2.272-8.406 2.064-10.374l1.287-.493a12.18 12.18 0 01-.514-8.363 6.927 6.927 0 016.466-4.588l1.232-.493c-2.085-5.293-2.507-12.367 3.079-14.919l.096-.096a10.905 10.905 0 01-5.06-7.307c-.246-4.053 6.418-5.786 9.392-5.035 9.238 3.058 13.241 9.346 21.22 15.739l1.102.187c2.245-2.577 2.421-3.239 4.619-6.044 2.442 1.875 10.273 5.355 11.501 11.43 1.817 8.992-7.322 17.682-4.474 26.399 1.595 4.893 7.846 7.797 11.52 10.969z" fill="#FCE0D1"/><path d="M582.059 490.466c-.524-7.972 2.088-24-7.168-28.272l.096-.232c3.488 0 8.736-.52 11.7 1.616a9.047 9.047 0 012.552 5.76 85.51 85.51 0 011.808 21.384 4.65 4.65 0 01-.844 2.648 22.683 22.683 0 01-7.392 2.296 34.587 34.587 0 01-.752-5.2zm-17.846 49.815c.424 2.84-4.66 3.232-6.464 3.54-26.904 4.62-19.664 4.928-24.456 4.192a9.064 9.064 0 003.388-4.38c.188-1.124-1.616-1.52-2.292-1.968l1.94-.072c-.068-.068 2.696-1.124 2.812-1.168a109.432 109.432 0 015.644-1.688 36.935 36.935 0 0114.756-2.012c1.908.288 4.348 1.404 4.672 3.556zm-32.157-11.155l.512.044a23.616 23.616 0 015.788-4.144 69.039 69.039 0 0115.668-8.528c1.54-.576 9.384-1.76 7.988 2.392-.992 2.944-6.532 4.852-8.972 6.156-7.02 3.764-15.504 7.312-21.104 13.192l-.584.16c-1.9-3.948.412-6.364.704-9.272z" fill="#E3E5ED"/><path d="M530.803 525.695a48.526 48.526 0 00-9.508-7.392c0-14.8-15.224-40.552-4.404-58.412 15.304 1.14 28.04 3.208 39.82 2.412 5.624-.384 13.856-2.736 19.044.372 8.236 4.952 5.78 19.912 6.3 27.804.896 13.724 9.852 23.024 14.004 47.196 1.176 6.852 1.848 15.748-3.14 21.364-4.396 4.944-12.292 6.112-18.168 8.548-13.164 5.456-25.46 13.592-39.628 16.392-5.764 1.144-13.396 1.848-18.248-2.248-9.696-8.196 2.116-21.048 8.388-26.744 1.568-1.432 3.136-2.836 4.708-4.268.772-.7 2.084-1.636 3.324-2.688 4.68.724-2.344.404 24.452-4.196 1.808-.308 6.892-.7 6.468-3.536-.308-2.156-2.772-3.26-4.66-3.56a36.986 36.986 0 00-14.756 2.012c-1.9.52-3.796 1.08-5.648 1.688-.116.048-2.88 1.104-2.808 1.172l-1.944.068a8.277 8.277 0 01-3.048-3.252l.588-.164c5.596-5.88 14.084-9.428 21.1-13.188 2.44-1.308 7.984-3.212 8.976-6.16 1.392-4.152-6.436-2.968-7.988-2.392a68.981 68.981 0 00-15.672 8.528 23.7 23.7 0 00-5.784 4.144l-.516-.044a3.872 3.872 0 00-.196-1.884 3.866 3.866 0 00-1.056-1.572zm-51.896-357.456c-17.988 0-35.068 9.65-52.7 20.049a250.346 250.346 0 00-28.13 19.043l-.538-.635c-5.435-6.815-3.585-10.562-2.772-13.7a22.887 22.887 0 015.235-6.956c14.433-14.993 54.657-45.091 69.821-29.934a74.47 74.47 0 019.396 11.147l-.312.986z" fill="#E3E5ED"/><path d="M465.156 50.443c6.144 9.647 9.804 19.732 7.084 31.246-3.984 16.936-15.932 16.504-32.884 11.827-26.42-7.285-52.435-23.31-74.213-40.287a187.974 187.974 0 01-20.095-17.355c-1.207-1.232-4.847-4.17-4.311-7.917.847-5.924 14.759-3.52 22.346-.117 5.623 2.525 7.776 5.386 10.07 4.967 3.843-.705 8.086-4.927 11.501-6.747 28.582-15.184 63.934-1.631 80.502 24.383z" fill="#1627A7" fill-opacity=".8"/><path d="M484.201 593.363a27.864 27.864 0 01-.42 4.312 7.392 7.392 0 01-2.348 3.592 7.356 7.356 0 01-3.956 1.676 78.944 78.944 0 01-28.244.376l-.616-1.736c9.068-3.22 16.164-7.44 26.888-7.388 2.832.016 6.204 1.029 8.572-1.007l.124.175z" fill="#E3E5ED"/><path d="M485.724 525.425a35.911 35.911 0 00-.116-9.648c-3.18-11.06-10.78-20.852-17.86-29.656a120.852 120.852 0 00-12.228-13.044c-6.184-5.692-15.356-10.28-17.244-19.02-2.668-12.376-3.844-10.896-2.716-11.432 0 .12.584.024.844.052 4.976.744 13.856 1.164 19.016 2.012l.26-.7a445.635 445.635 0 0033.584 10.864 89.928 89.928 0 0028.228 3.236l.02.816c-11.272 16.292 2.336 41.196 3.748 58.372a12.343 12.343 0 01-.684 5.372 12.307 12.307 0 01-12.9 8.044c-5.896-.22-10.844-4.924-18.248-5.336-.752-.056-3.072.492-3.704.068z" fill="#1627A7" fill-opacity=".8"/><path d="M486.216 528.851c1.388 4.052 7.948 3.868 7.868 9.464-.072 5.328-5.968 8.464-11.052 10.14-20.044 6.6-44.432 5.951-65.116 3.795-8.224-.856-18.708-1.863-25.134-7.083-11.04-8.948 6.605-20.897.772-29.909-2.389-3.696-7.867-5.719-11.359-8.199a83.951 83.951 0 01-16.582-15.552c-17.044-21.017-29.965-46.709-41.294-71.229a224.966 224.966 0 00-14.334-25.367 148.095 148.095 0 01-16.043-32.487c-2.11-7.359-9.605-19.79 3.793-29.512l.924-1.216a237.66 237.66 0 0043.474 26.747 23.312 23.312 0 0012.296 3.35c4.963-.671 9.469-4.893 13.241-7.87a126.584 126.584 0 0019.464-18.902c.656 1.423 26.37 10.405 32.818 12.764a82.981 82.981 0 0010.844 4.077c1.896-5.74 5.344-11.664 6.932-17.552 1.848-6.861.28-12.739.328-19.486-.372-.289.98-1.42-10.284 11.702-3.756 4.369-8.288 10.82-14.12 12.554-6.468 1.918-12.26-4.702-16.258-8.807-10.549-10.836-17.441-25.595-31.643-33.284a49.617 49.617 0 00-7.871-2.624c-6.035-1.539-12.852-3.695-14.312-7.729-1.561-4.336 3.843-9.238 6.396-11.945a102 102 0 0019.418-25.866c6.602-13.959 10.67-27.079 28.693-41.481a240.228 240.228 0 0128.129-19.043c16.668-9.829 34.224-20.203 53.028-20.049 17.652.141 32.624 9.216 43.824 22.506 27.824 33.017 39.876 76.869 53.428 116.833 3.96 11.701 16.628 21.925 17.916 34.057 1.476 13.857-12.092 22.741-14.592 35.344-2.228 11.24 3.924 22.412 1.008 33.962-7.7 30.536-34.524 45.817-63.08 47.153h-.252a89.915 89.915 0 01-28.228-3.236 371.274 371.274 0 01-65.652-24.712l-.328.448a51.926 51.926 0 018.292 6.816c3.884 4.024 5.184 9.623 6.7 16.651 1.884 8.74 11.052 13.329 17.244 19.021 4.392 4.04 8.48 8.399 12.228 13.043 7.1 8.804 14.692 18.596 17.86 29.656 1.28 4.416-.744 9.089.616 13.057z" fill="#1627A7" fill-opacity=".8"/><path d="M339.802 86.565c2.913-11.264 12.25-29.441 24.734-32.558l.615-.773c3.254 2.5 6.58 4.976 9.977 7.428-.702.991-.474.468-.489 1.45.175 2.024.519 4.03 1.028 5.995 4.659 18.784 13.078 39.601 30.733 47.422l.54.748c4.492-3.606 11.316-5.019 15.704-.351 6.308 6.738 3.264 16.875-2.624 22.627-1.732 1.687-5.908 3.44-6.956 5.573-.588 1.195.508 3.12.924 4.195a88.701 88.701 0 004.216 8.991c.512.964 1.172 2.532 2.272 2.975 1.38.563 4.14-1.232 5.316-1.731 4.612-2 9.184-4.101 13.704-6.3 3.628-1.761 7.612-3.258 11.432-5.013l.044.117a26.12 26.12 0 013.584 4.896c-18.248 2.854-43.616 22.46-54.528 33.799l-1.312-.986a23.082 23.082 0 00-13.069-8.807c-11.701-1.829-25.487 6.328-36.447-.07-6.98-4.074-6.774-13.694-9.884-20.306-.964-2.06-6.467-6.466-5.851-10.962l-.819-.283c1.454-1.873 2.771-3.671 3.56-3.489 4.234.967 5.133 9.115 11.033 6.91 5.389-2.011 1.869-9.749 5.059-12.317 1.894-1.54 9.349 8.739 10.938 2.177 1.176-4.847-4.197-9.5-7.871-11.36-10.737-5.435-18.476 1.336-27.637 1.805-3.165.163-8.12.092-9.275-3.677-2.377-7.757 11.877-13.324 15.459-18.27 4.089-5.681 4.188-13.272 5.89-19.855z" fill="#FCE0D1"/><path d="M388.234 554.288a15.91 15.91 0 006.042-2.772c2.968 4.124 6.214 6.004 9.157 9.512 2.792 3.32 6.624 7.588 7.24 12.132.276 2.06-1.592 5.996-4.168 4.332-7.031-5.64-6.563-10.432-17.99-21.76l-.281-1.444z" fill="#E3E5ED"/><path d="M393.553 515.261a10.078 10.078 0 01.049 9.484l-.33-.116a59.605 59.605 0 01-15.809.212c-5.949-1.076-11.292-3.884-17.38-4.428-24.899-2.228-49.949 0-71.72-15.272-16.077-11.276-25.574-37.076-13.303-54.412 9.814-13.856 31.526-25.152 47.782-29.744l1.475-.704c11.572 24.408 24.25 50.212 41.294 71.228a84.09 84.09 0 0016.582 15.556c3.492 2.476 8.97 4.496 11.36 8.196z" fill="#1627A7" fill-opacity=".8"/><path d="M388.518 555.746c11.753 11.648 10.777 15.964 17.989 21.756 2.576 1.664 4.448-2.272 4.168-4.332-.612-4.544-4.448-8.808-7.236-12.132-2.848-3.388-6.234-5.448-9.16-9.508a21.706 21.706 0 001.992-1.54l.586-2.272a64.39 64.39 0 0021.058 4.52c19.868 2.072 48.136 3.056 67.436-4.66l.308.748c4.26 12.276 9.416 34.312-1.384 44.692a.642.642 0 01-.208.164c-3.496 3.008-7.48-.828-19.464 2.484-8.64 2.384-15.78 6.772-24.328 8.124-16.012 2.524-33.564-.52-49.728-.584-12.881-.052-25.999-.048-38.8-1.312-5.949-.588-13.333-1.232-18.06-5.34-7.522-6.532-4.89-17.86 1.826-23.82 9.728-8.66 23.354-7.308 34.267-12.696l4.053.164c5.715 5.34 9.237 12.98 13.21 19.604 1.053 1.76 3.227 6.504 5.974 4.664 5.542-3.716-1.084-11.948-5.152-17.264-3.224-4.212-6.07-7.256-8.644-10.4-.169-.204-.4-.724-.585-.844l-.188-.772c3.28-.888 6.442-.284 9.814-.924l.256 1.48z" fill="#E3E5ED"/><path d="M387.843 567.219c4.074 5.324 10.688 13.548 5.151 17.264-2.747 1.844-4.927-2.904-5.974-4.664-3.963-6.624-7.495-14.264-13.21-19.604l-4.052-.164c4.619-2.232 4.985-3.852 8.668-4.848l.188.772c.185.116.415.64.585.844 2.568 3.14 5.37 6.124 8.644 10.4z" fill="#E3E5ED"/><path d="M375.124 60.656c19.581 14.051 41.218 26.51 64.25 32.86 6.816 1.881 16.044 4.24 23 1.641l2.928.07c17.308 9.836 6.776 37.06-5.388 46.705-6.16 4.877-12.58 6.497-20.424 10.307-4.524 2.195-9.076 4.31-13.7 6.3-1.18.505-3.936 2.294-5.32 1.73-1.1-.443-1.76-2.01-2.272-2.974a88.819 88.819 0 01-4.216-8.992c-.428-1.075-1.54-2.999-.924-4.194 1.052-2.134 5.236-3.886 6.956-5.574 5.892-5.752 8.932-15.889 2.624-22.626-4.372-4.669-11.196-3.255-15.704.351l-.54-.749c-13.82-6.115-21.383-19.513-26.445-33.284-1.669-4.539-5.34-15.985-5.34-20.847l.515-.724zm-19.77 65.87c3.674 1.848 9.048 6.513 7.871 11.36-1.589 6.562-9.044-3.695-10.938-2.177-3.19 2.571.33 10.309-5.059 12.317-5.9 2.205-6.799-5.943-11.033-6.91-1.605-.366-5.059 6.852-7.699 7.424-5.798 1.26-7.47-10.577-.212-18.993l-.138-1.265c9.761-.924 16.843-6.99 27.208-1.756z" fill="#000"/><path d="M301.88 405.621a29.652 29.652 0 01-7.083 8.6c-.776.648-1.872 2.06-2.879 2.364-5.167-3.252-6.217-5.688-2.109-10.28 3.79-4.26 7.621-3.28 12.071-.684z" fill="#FCE0D1"/><path d="M301.645 112.959l-7.821 3.254a29.875 29.875 0 01-.924 5.386l6.208 5.74a36.578 36.578 0 01-5.294 9.182l-8.08-2.531a28.584 28.584 0 01-4.194 3.514l1.053 8.385a35.193 35.193 0 01-9.952 3.63l-4.57-7.082a30.191 30.191 0 01-5.478 0l-4.57 7.082a35.165 35.165 0 01-9.977-3.63l1.078-8.385a26.296 26.296 0 01-4.194-3.514l-8.08 2.531a35.935 35.935 0 01-5.315-9.182l6.214-5.734a27.879 27.879 0 01-.961-5.386l-7.8-3.254c.09-3.554.705-7.075 1.827-10.448l8.455-.398a29.831 29.831 0 012.741-4.733l-3.886-7.516a36.763 36.763 0 018.151-6.824l6.722 5.13a28.078 28.078 0 015.151-1.872l1.848-8.247a36.708 36.708 0 0110.612 0l1.872 8.247a28.77 28.77 0 015.13 1.872l6.747-5.13a37.273 37.273 0 018.126 6.817l-3.889 7.517a29.292 29.292 0 012.74 4.733l8.456.397a36.79 36.79 0 011.854 10.449zm-19.464 1.006a16.877 16.877 0 10-33.754 0 16.877 16.877 0 0033.754 0z" fill="#EC6A7A"/><path d="M267.354 385.367l-.749.021c.167 7.006-3.63 9.651-7.356 8.807-9.755-2.208-8.995-18.71-4.099-26.174 5.1-7.757 17.759-4.04 25.414-3.652 4.571.551 9.206.144 13.611-1.195a143.855 143.855 0 0015.809 31.735 51.511 51.511 0 00-3.021 4.312 16.19 16.19 0 00-2.624-2.414c-.782-.496 2.695 1.579-6.792-4.192a25.625 25.625 0 01-28.764-5.084c-.093-.083-1.429-1.625-1.429-2.164z" fill="#FCE0D1"/><path d="M288.017 174.654c.616 2.771-2.035 6.417-3.162 8.761-2.266 4.708-4.69 11.862-10.048 13.857-4.36 1.629-8.502-.751-12.788.046a11.277 11.277 0 00-6.042 4.24c-5.752 6.467-12.807 16.321-14.288 18.011l-1.102-.188c-3.046-2.435-6.393-5.878-9.978-8.97l1.71-.258c3.772-5.543 7.941-10.778 11.735-16.278a28.68 28.68 0 004.73-7.636c.705-2.532-1.512-5.21-1.99-7.637a15.527 15.527 0 012.344-11.147c2.974-4.776 9.361-15.243 15.738-9.112 2.137 2.054-.065 5.084-1.195 7.082-2.632 4.693-7.156 13.583-.585 17.217a11.268 11.268 0 003.514 1.232c8.853 1.539 9.949-7.431 15.153-11.97 1.99-1.727 5.749.429 6.254 2.75z" fill="#E3E5ED"/><path d="M278.551 411.898c6.008 7.432-1.447 19.204-10.211 16.14-1.804-.632-8.006-6.444-4.286-8.436l.022-.092c5.339.784 12.344-1.8 13.142-7.776l1.333.164z" fill="#FCE0D1"/><path d="M297.549 392.618c9.377 5.703 6.076 3.735 6.794 4.191.956.711 1.835 1.52 2.623 2.414 2.821 3.167 5.971 8.151.844 9.015-2.223.376-5.131-2.36-5.928-2.624-4.449-2.596-8.28-3.576-12.086.684-4.096 4.58-3.08 7.056 2.109 10.28 2.485 1.54 6.442 3.536 5.598 5.996-2.438 7.112-13.121.528-17.192-1.616a9.828 9.828 0 00.249-4.748 9.87 9.87 0 00-2.007-4.316l-1.333-.164a10.087 10.087 0 00-1.5-7.696l-1.453-.188c1.847-2.412 2.636-5.384-.444-7.391a24.342 24.342 0 00-10.448-1.946l.025-.961a6.82 6.82 0 002.771-4.099c.32-1.326.47-2.688.447-4.052l.748-.022c0 .539 1.336 2.082 1.429 2.177a25.627 25.627 0 0028.754 5.066z" fill="#E3E5ED"/><path d="M263.372 394.491a24.338 24.338 0 0110.447 1.946c3.08 2.017 2.298 4.989.444 7.389a13.076 13.076 0 01-4.333 3.676c-4.582 2.392-10.854 3.76-15.319 1.62-6.122-2.94-5.269-13.634-1.146-18.013l.585-.421a7.331 7.331 0 004.132 3.201 7.333 7.333 0 005.214-.368l-.024.97z" fill="#FCE0D1"/><path d="M259.369 417.643c-1.008-.676-5.765-5.572-4.546-7.388l.352-.892c2.454.716 5.029.92 7.566.604a18.765 18.765 0 007.19-2.432 13.15 13.15 0 004.332-3.676l1.454.188a10.04 10.04 0 01-1.056 12.58 12.947 12.947 0 01-7.479 3.016 12.915 12.915 0 01-7.813-2z" fill="#FCE0D1"/><path d="M252.392 374.851c-1.266 5.361-1.173 11.849 1.663 15.856l-.585.421c-4.62-1.909-21.556-13.053-28.53-16.84a28.831 28.831 0 00-8.105-3.89c-2.575-.421-4.992 2.048-7.391 2.79a15.534 15.534 0 01-11.334-1.127c-5.072-2.445-16.133-7.652-10.729-14.66 1.804-2.341 5.038-.496 7.169.421 4.927 2.125 14.263 5.676 17.192-1.265.473-1.148.75-2.367.819-3.606.554-8.973-8.444-9.127-13.515-13.798-1.94-1.783-.21-5.759 2.06-6.51 2.672-.887 6.608 1.333 9.04 2.202 4.928 1.752 12.302 3.387 14.877 8.502 2.085 4.145.163 8.526 1.404 12.717a11.295 11.295 0 004.847 5.543c4.757 3.372 15.365 10.002 20.323 13.047l.795.197zM213.201 84.692l-9.835 4.144a37.59 37.59 0 01-1.195 6.815l7.846 7.285a46.042 46.042 0 01-6.701 11.64l-10.186-3.184a35.785 35.785 0 01-5.293 4.45l1.358 10.657a45.862 45.862 0 01-12.579 4.592l-5.762-9.02a37.441 37.441 0 01-6.91 0l-5.761 9.02a45.278 45.278 0 01-12.579-4.592l1.358-10.657a35.793 35.793 0 01-5.294-4.45l-10.186 3.184a46.038 46.038 0 01-6.7-11.64l7.846-7.285a37.59 37.59 0 01-1.195-6.815l-9.835-4.144a45.7 45.7 0 012.318-13.26l10.658-.49a37.155 37.155 0 013.442-6.02l-4.896-9.546a46.449 46.449 0 0110.261-8.643l8.477 6.515a36.128 36.128 0 016.513-2.39l2.34-10.444a45.716 45.716 0 0113.377 0l2.34 10.445a35.27 35.27 0 016.488 2.39l8.502-6.514a45.814 45.814 0 0110.236 8.669l-4.893 9.546a35.821 35.821 0 013.464 6.02l10.657.49a46.464 46.464 0 012.319 13.232zm-24.523 1.287a21.273 21.273 0 00-25.491-20.75 21.28 21.28 0 00-7.607 38.551 21.273 21.273 0 0011.807 3.584 21.27 21.27 0 0019.717-13.202 21.281 21.281 0 001.589-8.183h-.015zm7.239 195.684a28.514 28.514 0 00-5.038 7.427c-.819 2.482 1.232 5.268 1.663 7.729a15.448 15.448 0 01-2.833 11.008c-3.045 4.73-9.977 14.827-16.089 8.431-2.039-2.13.255-5.08 1.474-7.027 2.858-4.566 7.745-13.24 1.334-17.191a11.002 11.002 0 00-3.443-1.358c-8.788-1.9-10.297 6.984-15.671 11.288-2.066 1.657-5.724-.652-6.134-2.996-.483-2.771 2.322-6.322 3.56-8.622 2.464-4.585 5.176-11.64 10.608-13.42 4.428-1.45 8.456 1.124 12.792.515a11.115 11.115 0 006.205-3.982c4.052-4.169 7.778-8.69 11.526-13.139a39.57 39.57 0 013.535-4.241l1.897-.773a28.3 28.3 0 007.519 9.98c-5.601 7.28-9.968 12.493-12.905 16.371z" fill="#E3E5ED"/><path d="M174.579 202.205l-16.135 6.63a58.329 58.329 0 01-1.968 10.959l12.859 11.643a73.555 73.555 0 01-10.987 18.692l-16.699-5.131a57.624 57.624 0 01-8.668 7.178l2.226 17.054a75.851 75.851 0 01-20.613 7.39l-9.438-14.473a61.14 61.14 0 01-11.335 0L84.38 276.62a75.868 75.868 0 01-20.61-7.39l2.223-17.054a57.818 57.818 0 01-8.665-7.165l-16.702 5.13a73.624 73.624 0 01-10.984-18.691L42.5 219.807a58.308 58.308 0 01-1.968-10.96l-16.139-6.642a73.193 73.193 0 013.819-21.247l17.472-.798a57.716 57.716 0 015.672-9.622l-8.037-15.271a73.77 73.77 0 0116.82-13.857l13.912 10.424a57.912 57.912 0 0110.633-3.819l3.842-16.77a76.241 76.241 0 0121.922 0l3.843 16.77a57.966 57.966 0 0110.633 3.819l13.912-10.424a73.767 73.767 0 0116.817 13.857l-8.034 15.271a57.528 57.528 0 015.663 9.626l17.475.797a73.084 73.084 0 013.821 21.244zm-40.216 2.063a34.878 34.878 0 00-59.327-25.463 34.877 34.877 0 005.012 53.831 34.885 34.885 0 0019.439 5.921 34.934 34.934 0 0034.876-34.289z" fill="#EC6A7A"/><path d="M435.226 220.555a239.023 239.023 0 0121.344-10.988 1.536 1.536 0 00.764-2.038 1.533 1.533 0 00-2.036-.767 267.655 267.655 0 00-29.276 15.643c-1.232.81-4.06 1.374-4.368 2.935-17.036-10.005-23.377-9.078-25.914-9.601a1.537 1.537 0 00-2.127 1.314c-.023.326.059.651.233.927.462.73.548.743 5.074 1.287 17.53 2.098 47.922 23.425 56.178 49.627a1.536 1.536 0 002.832.25c.188-.362.228-.785.104-1.174-4.908-15.575-17.268-30.538-33.564-40.903.928-.831 10.104-6.134 10.756-6.512zm94.042 156.33c.392.093.808.026 1.156-.185a1.56 1.56 0 00.692-.945 199.294 199.294 0 005.36-23.551c.04-.941.168-1.875.38-2.793a1.537 1.537 0 00-2.316-1.672c-.176.11-.324.252-.44.42-.116.168-.2.357-.244.556a18.218 18.218 0 00-.448 3.221 201.03 201.03 0 01-5.284 23.095 1.446 1.446 0 00-.02.6c.032.2.1.392.208.564a1.535 1.535 0 00.956.69zm15.926-.706a1.539 1.539 0 002.008-.84 91.271 91.271 0 005.596-19.237c1.096-6.587-4.12-4.437-2.968-2.119.028 4.97-3.588 15.557-5.48 20.188a1.574 1.574 0 00-.116.59 1.565 1.565 0 00.46 1.087c.144.142.312.255.5.331zm19.578-2.381a57.352 57.352 0 005.34-21.269c0-1.475-3.268-6.861-3.08 0a51.452 51.452 0 01-5.068 19.997 1.555 1.555 0 00-.136.586 1.573 1.573 0 00.416 1.103 1.52 1.52 0 001.072.486c.204.007.404-.026.596-.097a1.566 1.566 0 00.86-.806zm-94.204 94.936c-7.084-12.2-6.548-11.088-6.612-11.412a1.54 1.54 0 00-1.5-1.54 1.517 1.517 0 00-1.58 1.5c-.036 1.604 1.592 3.48 2.044 4.312a437.542 437.542 0 0026.768 42.044c.116.176.26.324.432.44.172.116.368.196.572.236.204.04.412.036.616-.008a1.521 1.521 0 00.984-.7 1.52 1.52 0 00.18-1.192 1.534 1.534 0 00-.272-.556c-8.816-12.416-15.716-22.928-21.632-33.124zm12.467 15.591a1.573 1.573 0 00.832.852c.188.08.392.12.596.124.204 0 .404-.04.596-.12a1.525 1.525 0 00.836-.844 1.522 1.522 0 00-.012-1.192 118.593 118.593 0 01-6.54-22.58 1.556 1.556 0 00-.536-1.052 1.602 1.602 0 00-.528-.296 1.535 1.535 0 00-1.176.092 1.524 1.524 0 00-.768.9 1.51 1.51 0 00-.072.596 117.592 117.592 0 006.772 23.52z" fill="#2E3847"/><path d="M597.579 537.378a132.282 132.282 0 00-7.832-26.6 108.51 108.51 0 01-5.024-13.96 13.567 13.567 0 006.744-2.568 5.962 5.962 0 001.12-3.388 82.7 82.7 0 00-1.8-21.628 10.654 10.654 0 00-3.192-6.916 18.573 18.573 0 00-10.9-1.932c-1.892.044-1.824.024-1.988.052-5.544-2.084-13.072-.032-18.096.308-11.704.796-25.456-1.364-37.388-2.244a1.534 1.534 0 00-.256-1.34 1.497 1.497 0 00-.54-.448 1.565 1.565 0 00-.684-.164h-.328a88.605 88.605 0 01-27.74-3.172 404.944 404.944 0 01-47.86-16.532c-21.148-8.932-21.86-9.996-24.564-15.008.104-.116.192-.252.26-.396a40.42 40.42 0 002.316-26.482c-.232-.9-.512-1.788-.836-2.658l-2.9 1.038s.616 1.678.716 2.22a37.74 37.74 0 01-1.176 22.418c-2.464-7.424-3.724-16.144-6.58-21.501-1.676-3.144-2.704-2.956-3.172-2.878-.312.051-.6.195-.824.413a1.553 1.553 0 00.232 2.432c3.708 4.71 4.508 14.39 7.884 23.854a23.79 23.79 0 009.236 11.576 50.712 50.712 0 018.024 6.588 15.696 15.696 0 013.232 4.924 66.512 66.512 0 013.104 11.036c1.988 9.192 11.212 13.828 17.688 19.788 4.336 3.992 8.372 8.3 12.076 12.884 7.548 9.364 14.572 18.636 17.588 29.108 1.132 3.94-.844 8.592.64 13.168 1.676 4.648 7.84 4.492 7.78 8.928-.06 3.884-4.264 6.428-7.768 7.868-18.904 7.568-46.5 6.672-66.704 4.56-7.936-.828-18.108-1.72-24.325-6.736-9.854-8.028 7.565-19.556 1.093-29.564-2.633-4.08-8.345-6.188-11.766-8.62a81.975 81.975 0 01-16.277-15.268c-16.601-20.46-28.998-45.18-41.085-70.888-8.905-18.944-25.195-39.32-30.307-57.664-2.364-7.867-9.096-18.889 3.221-27.825a1.48 1.48 0 00.324-.308 236.419 236.419 0 0043.033 26.242 22.854 22.854 0 0012.626 3.231c5.274-.696 9.782-4.835 13.998-8.179a131.29 131.29 0 0018.784-18.033c6.546 3.126 40.061 15.323 41.477 15.773-1.688 6.041-1.904 13.45 7.2 19.969a33.13 33.13 0 008.036 4.102 1.54 1.54 0 001.892-2.126 1.538 1.538 0 00-.88-.784 30.014 30.014 0 01-7.272-3.695c-14.26-10.214-2.292-22.119 1.364-35.616 1.936-7.175.36-13.004.384-19.732 5.872-6.926 19.88-23.763 26.76-29.288.316-.256.516-.628.56-1.032.04-.405-.08-.81-.332-1.127a1.538 1.538 0 00-2.16-.239 137.514 137.514 0 00-13.424 13.672c-4.4 4.994-25.556 29.912-26.144 30.639-3.344 4.055-7.132 8.647-11.648 9.986-5.176 1.54-10.264-3.769-13.979-7.643-11.917-12.418-18.301-26.503-32.857-34.377a50.756 50.756 0 00-8.077-2.701c-17.407-4.437-15.658-8.243-7.208-17.136 15.396-16.216 17.398-21.146 22.411-32.204a98.765 98.765 0 0111.723-21.105 91.041 91.041 0 0113.804-13.901 232.551 232.551 0 0127.975-18.934c16.292-9.854 33.74-19.825 52.228-19.825 1.848 0 1.752-2.679 1.284-3.387a75.73 75.73 0 00-9.548-11.354 17.651 17.651 0 00-15.468-4.498 44.45 44.45 0 00-3.56-4.41 1.532 1.532 0 00-1.708-.158 1.518 1.518 0 00-.46.387 1.526 1.526 0 00-.332 1.135 1.523 1.523 0 00.572 1.035 14.28 14.28 0 012.02 2.608c-19.016 4.16-42.54 23.166-52.171 32.865a24.332 24.332 0 00-13.974-9.29c-11.988-1.847-25.577 6.14-35.905.124-6.297-3.696-6.103-12.934-9.266-19.628-1.062-2.291-6.22-6.451-5.724-10.106a1.537 1.537 0 00-.123-.841 13.62 13.62 0 011.339-1.54c3.055 1.232 4.724 9.291 11.572 6.744 6.085-2.276 3.455-9.943 5.235-12.287 2.156 1.016 6.091 5.423 9.312 4.259a4.097 4.097 0 002.42-3.193c1.38-5.712-4.431-10.962-8.668-13.096-10.953-5.574-18.587.686-28.062 1.598-2.919.274-7.23.24-8.077-2.553-1.971-6.381 11.529-11.803 15.233-16.912 4.355-6.02 4.447-13.817 6.159-20.357 2.923-11.341 12.185-28.595 23.615-31.446a1.528 1.528 0 00.948-.701 1.528 1.528 0 00.175-1.167 1.535 1.535 0 00-.701-.948 1.552 1.552 0 00-1.167-.174c-13.37 3.338-22.953 22.423-25.851 33.666-1.708 6.575-1.826 14.023-5.659 19.32-3.387 4.671-18.476 10.59-15.686 19.621.695 2.282 2.882 4.755 9.037 4.841a20.432 20.432 0 00-4.003 13.684 6.412 6.412 0 005.657 6.547 5.713 5.713 0 004.48-2.522 19.508 19.508 0 004.213 6.815 14.132 14.132 0 011.54 2.044c3.103 6.578 2.829 16.499 10.5 20.983 11.621 6.774 25.559-1.497 36.98.258a21.702 21.702 0 0112.154 8.315c.036.039.074.077.114.114a24.407 24.407 0 00-4.382 6.42l-.243.874a13.3 13.3 0 002.872 13.639c-17.352 14.531-20.779 25.977-27.923 41.035a102.216 102.216 0 01-20.015 26.383c-3.015 3.129-7.588 7.84-5.851 12.626 1.54 4.311 7.658 6.466 13.299 8.108a28.551 28.551 0 01-7.033 7.193c-1.906.696-2.669 3.439-1.511 4.357 5.542 4.376 10.839 9.124 15.802 13.614a1.526 1.526 0 001.111.395 1.533 1.533 0 001.373-1.02 1.546 1.546 0 00-.059-1.178 1.544 1.544 0 00-.358-.482c-4.699-4.25-9.709-8.73-14.941-12.933a18.349 18.349 0 003.239-2.464c1.994-2.1 3.879-4.3 5.648-6.593a42.127 42.127 0 016.328 2.193c11.683 6.328 18.131 17.429 26.599 27.732-5.109 5.672-4.037 9.682-26.482 27.921-9.497 7.719-12.197 7.88-21.836 3.316a191.283 191.283 0 01-20.015-10.661 365.345 365.345 0 01-49.605-37.259c-6.846-6.107-12.856-13.377-19.994-19.311-4.191-3.489-8.518-2.799-12.459-4.905-4.247-2.285-7.84-7.046-12.249-9.956-10.316-6.796-20.284-7.824-26.286-20.542-2.725-6.038-.114-7.674 1.078-8.243.453 1.081.955 2.14 1.503 3.162a1.533 1.533 0 001.513.819 1.547 1.547 0 001.045-.562 1.537 1.537 0 00.155-1.713 34.053 34.053 0 01-1.937-4.311 10.622 10.622 0 01-.477-7.224 5.41 5.41 0 011.957-2.572 5.409 5.409 0 013.074-1c.129-.002.257-.02.382-.053a19.175 19.175 0 001.894 3.237 1.542 1.542 0 002.122.304 1.546 1.546 0 00.369-2.112c-3.314-4.57-5.481-13.549-.462-16.582a9.826 9.826 0 012.854 3.834 1.538 1.538 0 00.829.874 1.536 1.536 0 001.714-.333 1.533 1.533 0 00.439-1.122 1.53 1.53 0 00-.139-.599 12.755 12.755 0 00-4.619-5.69c-2.236-1.848-4.345-3.616-4.493-6.208-.166-2.522 5.105-4.05 7.369-3.477 8.862 2.941 13.352 9.574 20.745 15.483.157.132.339.232.536.293.196.061.403.082.607.061a1.54 1.54 0 00.779-2.759c-7.754-6.202-11.754-12.705-21.805-16.034a11.984 11.984 0 00-9.238 2.189 5.23 5.23 0 00-2.072 4.432 10.199 10.199 0 004.003 7.02c-4.191 3.218-4.163 9.202-2.584 14.202a8.566 8.566 0 00-4.416 1.784 8.565 8.565 0 00-2.777 3.87 13.724 13.724 0 00.022 7.911c-2.612 1.204-6.387 4.403-2.772 12.412 6.565 13.928 17.155 15.089 27.388 21.827 4.332 2.861 7.593 7.464 12.489 10.097 4.235 2.266 8.542 1.727 11.945 4.557 6.95 5.78 13.026 13.103 19.917 19.246a388.858 388.858 0 0024.783 20.268c-11.92 8.955-7.844 20.117-5.134 27.532.388 1.066.755 2.066 1.044 2.969a58.534 58.534 0 01-11.701.366c-8.123-.351-21.097-4.283-26.79 4.373a20.841 20.841 0 00-2.501 5.478c-5.259-3.243-14.78-9.204-19.301-12.41a9.742 9.742 0 01-4.135-4.655c-1.146-3.859.803-8.37-1.509-12.974-3.16-6.263-11.951-7.633-17.445-9.949a12.777 12.777 0 00-8.314-1.54c-3.387 1.121-5.456 6.516-2.626 9.103 5.256 4.868 13.53 4.822 13.025 12.579a9.567 9.567 0 01-.696 3.079c-2.387 5.503-10.408 2.596-15.886.145-2.223-.995-5.931-2.676-8.281.369a7.193 7.193 0 00-1.579 6.325c1.207 4.85 7.587 8.123 12.822 10.648a17.071 17.071 0 0012.533 1.214c2.156-.666 4.844-3.012 6.445-2.772a27.81 27.81 0 017.812 3.766c5.629 3.055 20.779 12.798 26.855 16.111-3.514 5.561-3.554 15.042 2.137 18.386-1.013 3.528 5.235 8.732 5.312 8.784a13.151 13.151 0 002.971 1.504c-.979 3.444 4.087 8.276 6.353 9.072a10.73 10.73 0 0013.315-6.36c6.248 4.256 15.397 6.776 17.814-.064.97-2.908-1.678-4.976-4.284-6.596a37.444 37.444 0 007.736-8.7 8.223 8.223 0 005.647 1.992 4.334 4.334 0 002.309-.812 4.337 4.337 0 001.507-1.928c.843-2.432-1.007-5.472-2.707-7.585.218-.398.591-1.128.828-1.639 5.645 8.932 11.086 19.12 12.28 21.748-16.32 4.644-38.411 16.08-48.474 30.296-12.487 17.64-3.594 44.424 13.678 56.564 17.734 12.408 37.9 13.496 57.405 14.548 16.739.908 17.075.88 24.591 3.296a38.873 38.873 0 0015.089 2.56c2.224 0 4.447-.124 6.657-.368a76.625 76.625 0 01-.692 1.54c-2.55 5.648-5.728 12.68 1.274 18.38 1.117.9 2.321 1.688 3.594 2.352-7.535 6.464-11.132 3.288-17.389 4.988-3.88 1.052-4.727 2.908-8.945 4.952-10.778 5.32-24.502 3.916-34.609 12.936-7.698 6.832-9.853 19.14-1.81 26.132 5.007 4.34 12.428 5.072 18.913 5.712 12.317 1.208 25.844 1.288 38.956 1.316 18.387.04 41.263 4.132 57.179-1.232.048.324.196.624.424.86.228.232.524.388.848.444a79.811 79.811 0 0028.664-.368 8.94 8.94 0 004.836-2.084 8.941 8.941 0 002.82-4.448c.24-1.38.388-2.78.432-4.184 11.324-11.536 5.076-35.068 1.576-45.34 5.388-2.54 8.256-6.004 8.312-10.076a7.937 7.937 0 00-1.388-4.296 7.927 7.927 0 00-3.5-2.852c-2.308-1.436-3.02-1.952-3.36-4.08.456-.04 1.928-.208 1.928-.208 8.04.616 11.988 5.356 18.988 5.356a13.884 13.884 0 0014.4-11.488c2.156 1.94 4.856 3.812 7.084 6.064 2.404 2.18-1.716 5.708-.444 10.604a9.552 9.552 0 004.216 5.52c.42.276 1.032.496 1.46.724-.88 1.912-2.06 2.692-4.428 4.54-1.512 1.184-.848.616-6.356 5.608-9.404 8.52-18.02 20.892-8.348 29.068 5.136 4.34 12.936 3.904 19.54 2.584 14.412-2.836 26.856-11.072 39.924-16.484 5.912-2.464 13.968-3.596 18.736-8.948 5.388-6.02 4.72-15.248 3.528-22.644zM328.168 147.053a1.77 1.77 0 01-1.506-.275 4.847 4.847 0 01-1.58-3.387 17.471 17.471 0 014.36-12.822c.226-.257.357-.583.373-.924 9.238-1.373 15.612-6.426 24.847-1.728 3.476 1.75 7.966 5.891 7.064 9.62-.185.764-.413 1.001-.477 1.026-.699.258-2.99-1.454-4.099-2.27-2.156-1.589-4.185-3.098-5.835-1.764-3.917 3.165-.431 10.504-4.619 12.074-4.468 1.663-5.217-5.878-10.14-6.969-1.688-.391-3 1.285-4.801 3.619-1.583 2.044-2.901 3.646-3.587 3.8zm67.831 47.273l.157-.659a21.531 21.531 0 014.975-6.565c13.936-14.473 53.484-44.034 67.652-29.869a74.339 74.339 0 018.224 9.512c-17.72.616-34.524 9.921-51.568 20.218a235.223 235.223 0 00-27.125 18.236 10.292 10.292 0 01-2.315-10.873zm-2.303 134.194c1.493 1.712 2.176 2.383 3.313 3.569 4.73 4.927 10.422 10.436 17.082 8.465 5.412-1.611 9.7-6.805 13.144-10.978.588-.714 6.844-8.058 9.388-11.085a45.775 45.775 0 01-.376 15.418c-1.416 5.216-4.456 10.722-6.412 16.037a82.987 82.987 0 01-9.352-3.612c-2.724-1.001-17.452-6.276-22.039-8.028-5.912-2.272-8.958-3.661-9.023-3.695a70.67 70.67 0 004.275-6.076v-.015zm-139.802 46.643c2.418-11.443 9.716-11.132 21.152-9.771 4.811.648 9.676.805 14.519.468 1.647-.151 2.956-.274 3.544-.961a144.443 144.443 0 0014.855 29.663s-.533 1.485-1.004 2.445a25.948 25.948 0 00-6.383-4.157 24.66 24.66 0 001.789-1.065 1.55 1.55 0 00.669-.971 1.543 1.543 0 00-2.344-1.616 25.395 25.395 0 01-28.589-.616c-5.41-4.252-3.338-6.965-6.432-13.949a1.543 1.543 0 00-2.578-.528 1.55 1.55 0 00-.408 1.157c.016.21.074.415.171.603 2.073 4.686 3.818 13.656-.277 16.345a5.852 5.852 0 01-7.27-2.421c-2.692-3.781-2.498-10.02-1.414-14.626zm-28.08-2.156a30.246 30.246 0 00-8.733-4.139c-3.341-.535-6.063 2.205-8.046 2.827-3.436.975-7.114.6-10.282-1.047-6.067-2.925-14.239-7.015-10.143-12.317.732-.946 2.112-.545 4.572.554 7.609 3.406 16.687 5.851 19.994-1.752.532-1.304.844-2.687.924-4.092.662-10.162-9.201-10.578-14.011-15.03-.948-.869.216-3.489 1.509-3.917 1.98-.665 5.802 1.395 8.037 2.192 4.773 1.709 11.748 3.258 14.014 7.745 1.801 3.584-.015 8.034 1.355 12.603a12.748 12.748 0 005.383 6.23c4.736 3.359 15.165 9.878 20.212 12.976a25.443 25.443 0 00.505 12.4c-5.41-3.094-20.717-12.763-25.29-15.227v-.006zm28.117 19.972a9.237 9.237 0 008.407 2.661c.286.25.654.388 1.034.388a23.107 23.107 0 019.596 1.687 2.742 2.742 0 011.351 1.783 4.78 4.78 0 01-1.275 3.388 11.883 11.883 0 01-3.806 3.24 17.297 17.297 0 01-13.493 1.772c-5.337-2.072-4.767-10.74-1.814-14.912v-.007zm2.285 18.307a21.715 21.715 0 0014.442-2.416c1.583-.848 3-1.972 4.185-3.32a8.538 8.538 0 01-1.152 9.852 11.462 11.462 0 01-13.463.952 15.607 15.607 0 01-4.012-5.06v-.008zm12.625 15.292c-1.398-.488-5.235-4.62-4.311-5.468a15.248 15.248 0 0011.15-3.384 9.633 9.633 0 002.495-3.628c3.405 6.248-2.458 14.876-9.328 12.484l-.006-.004zm24.943-13.548c-.573.484-1.198 1.212-1.829 1.74-2.729-1.832-3.563-3.124-2.966-4.52a10.454 10.454 0 011.965-2.956c2.386-2.748 4.76-3.116 8.798-1.1a27.258 27.258 0 01-5.965 6.852l-.003-.016zm15.178-7.024c-.148.428-.952.616-1.417.704-2.734.44-11.289-10.205-18.888-1.464a13.272 13.272 0 00-2.498 3.792c-1.847 4.348 2.23 7.204 5.913 9.44.945.572 4.311 2.528 3.972 3.572a2.842 2.842 0 01-1.663 1.848 11.737 11.737 0 01-8.135-1.356c-3.668-1.768-3.797-2.448-4.105-2.724a11.37 11.37 0 00-2.396-8.9 1.55 1.55 0 00-.803-.516c.201-2.716-.6-5.412-2.252-7.576a6.406 6.406 0 00.662-3.839c-.766-4.603-6.596-5.58-11.245-5.924a8.935 8.935 0 001.758-4.265 27.359 27.359 0 0029.149 5.688 69.68 69.68 0 016.411 3.559 14.815 14.815 0 012.396 2.211c2.445 2.686 3.43 4.934 3.144 5.766l-.003-.016zm68.773 117.32c-5.869-1.06-11.178-3.884-17.515-4.444-25.296-2.288-49.577-.032-70.972-14.996-15.831-11.12-24.453-36-12.933-52.264 9.659-13.648 31.101-24.68 46.944-29.156a1.58 1.58 0 00.323-.136c12.056 25.38 24.327 49.8 40.829 70.152a85.102 85.102 0 0016.887 15.836c3.387 2.404 8.841 4.496 10.962 7.78a7.746 7.746 0 01.986 3.508 7.746 7.746 0 01-.724 3.572 57.72 57.72 0 01-14.787.148zm99.444 78.096a77.098 77.098 0 01-25.608.688c9.084-3.508 14.064-6.208 23.9-6.376 2.332.328 4.704.316 7.036-.032-.06.536-.128 1.048-.212 1.54a5.846 5.846 0 01-1.912 2.876 5.904 5.904 0 01-3.204 1.304zm6.068-9.548a1.716 1.716 0 00-.192.144 7.077 7.077 0 01-5.32.772c-11.76-1.02-20.912 4.224-29.68 7.34-15.704 5.888-38.308 1.576-58.914 1.54-13.062-.028-24.942-.096-37.592-1.336-5.617-.552-12.604-1.232-16.878-4.928-6.593-5.728-4.437-15.928 1.847-21.508 10.735-9.568 26.828-6.344 38.686-15.396 6.491-5.056 12.117 1.264 22.079-7.336.187-.16.332-.364.423-.596.091-.228.126-.476.1-.724a69.167 69.167 0 0019.021 3.84c21.028 2.176 47.668 3.292 67.632-4.096 3.336 9.86 9.208 31.996-1.208 42.288l-.004-.004zm104.496-122.228a80.972 80.972 0 011.768 21.06 3.173 3.173 0 01-.412 1.584 15.133 15.133 0 01-5.084 1.54c-1.54-8.804 1.78-22.96-4.952-30.384 2.244-.192 4.5.228 6.528 1.208a7.812 7.812 0 012.156 4.996l-.004-.004zM432.651 436.31c-.756-.784-.248.2 13.992 5.88-8.316-.688-9.464-1.08-10.472-1.052a1.35 1.35 0 00-.192-.064 19.216 19.216 0 00-3.328-4.764zm75.076 92.848c-5.648-.204-10.216-4.904-18.252-5.34-.72.028-1.44.1-2.156.208a26.11 26.11 0 00-.22-8.676c-3.18-11.024-10.4-20.572-18.152-30.18-3.8-4.7-7.94-9.116-12.384-13.212-6.292-5.792-15.072-10.32-16.768-18.168a82.832 82.832 0 00-2.504-9.44c14.072 1.46 14.168 1.26 17.884 1.876a1.539 1.539 0 001.232-.308 450.378 450.378 0 0032.46 10.448 91.204 91.204 0 0026.368 3.364c-6.944 12.2-2.868 27.188.736 40.436a101.527 101.527 0 013.816 18.192 10.775 10.775 0 01-.904 4.46 10.776 10.776 0 01-2.668 3.684 10.764 10.764 0 01-3.956 2.248c-1.464.46-3.012.6-4.532.408zm84.064 28.832c-4.056 4.552-11.736 5.716-17.616 8.152-13.14 5.448-25.464 13.576-39.34 16.32-8.008 1.596-13.552.972-16.936-1.916a7.857 7.857 0 01-2.272-2.72 7.974 7.974 0 01-.868-3.436c-.14-8.28 10.676-17.46 16.272-22.54 2.868-2.6 5.636-3.5 7.204-7.956.34-2.012-1.648-2.904-2.496-3.284a6.489 6.489 0 01-2.976-2.864c-1.54-3.184.452-5.132.84-8.388a5.505 5.505 0 00-.26-2.572 5.503 5.503 0 00-1.408-2.168c-2.52-2.56-6.504-5.332-8.04-7.008a2.854 2.854 0 00-1.124-.856c-1.848-17.436-14.008-39.136-4.928-55.368.176.084.364.132.556.144 12.028.852 26.2 3.128 38.46 2.3 5.152-.348 12.808-2.416 17.428-.232 6.544 3.04 6.3 13.892 6.216 21.104a43.559 43.559 0 00.86 11.368c3.448 14.1 9.264 20.22 13.224 41.84 1.032 6.684 1.688 15.016-2.812 20.08h.016z" fill="#2E3847"/><path d="M351.148 72.369a7.02 7.02 0 00-.723.237 1.57 1.57 0 00-1.358 1.672 1.535 1.535 0 00.734 1.188 1.54 1.54 0 001.393.106c.539-.17.201-.22 2.298-.256a16.143 16.143 0 0115.529 10.34 1.538 1.538 0 001.984.9 1.541 1.541 0 00.901-1.983 19.428 19.428 0 00-20.758-12.204zm.206 18.296c-3.135.816-2.75 7.162-1.737 10.294 1.595 3.904 5.927 1.949 5.777-4.995-.059-2.691-1.423-5.961-4.04-5.3zm27.15-7.897c4.163 11.326 11.516 27.19 27.265 34.159a1.536 1.536 0 002.064-.769 1.54 1.54 0 00.024-1.195 1.555 1.555 0 00-.84-.851c-11.177-4.945-19.315-15.24-25.625-32.41a103.157 103.157 0 01-5.161-18.931 1.533 1.533 0 00-.341-.79 1.534 1.534 0 00-1.57-.51c-.284.072-.54.224-.74.438a1.48 1.48 0 00-.345 1.155 102.06 102.06 0 005.269 19.704zm29.379 53.138c.2.284.492.49.828.586.336.096.692.075 1.016-.058a1.545 1.545 0 00.928-1.679 9.47 9.47 0 011.648-3.431c.076.031.148.068.224.108 3.136 1.539 3.148 2.155 4.096 2.155.328 0 .648-.104.912-.298s.46-.467.556-.78a1.51 1.51 0 00-.012-.958 1.514 1.514 0 00-.576-.766 27.239 27.239 0 00-3.352-1.998 11.157 11.157 0 015.112-3.203 1.542 1.542 0 00.884-1.849 1.536 1.536 0 00-1.736-1.088c-7.756 2.275-11.96 11.356-10.528 13.259z" fill="#2E3847"/></svg>