<svg width="621" height="621" fill="none" xmlns="http://www.w3.org/2000/svg"><path fill-rule="evenodd" clip-rule="evenodd" d="M546.724 217.585c30.528 12.952 28.476 40.912 30.148 91.552.984 29.934-5.812 65.722-6.028 284.063 0 0-441.638-1.044-497.565-6.772-9.167-74.94-5.801-148.056 7.39-160.092 28.752-26.255 83.552-27.933 156.091-26.396 9.044-21.965 0-50.695 0-66.264 0-32.361-18.278-74.107 28.302-82.631 54.323-9.936 93.273-10.146 176.886-20.486 59.68-7.372 78.024-24.321 104.776-12.974z" fill="#1627A7" fill-opacity=".8"/><path d="M296.224 512.215c-79.379 0-165.689-12.316-166.804-12.476a1.527 1.527 0 01-1.013-.604 1.541 1.541 0 01-.289-1.144 1.522 1.522 0 011.14-1.276c.198-.048.402-.056.603-.024 1.435.208 144.512 20.632 231.275 8.732a1.538 1.538 0 011.737 1.32 1.545 1.545 0 01-1.318 1.736 493.978 493.978 0 01-65.331 3.736z" fill="#2E3847"/><path fill-rule="evenodd" clip-rule="evenodd" d="M366.328 476.413l48.732-53.101-83.306 12.76 34.574 40.341z" fill="#1627A7" fill-opacity=".8"/><path fill-rule="evenodd" clip-rule="evenodd" d="M300.622 471.799a48.512 48.512 0 00-23.689 11.392l-25.901 110.008H210.73c6.159-55.004 8.219-73.288 12.37-110.008 2.014-17.844 4.496-31.004 13.718-41.104 28.694-31.408 86.258 5.42 86.258 5.42s19.813-4.12 21.965-4.188c23.077-.688 26.396 20.428 19.135 40.672 0 0-13.164 6.952-20.98 29.284-7.815 22.336-9.29 27.072-47.252 89.088l-38.454-9.236c9.721-23.752 34.796-83.092 40.176-110.008a99.095 99.095 0 012.956-11.32z" fill="#FCE0D1"/><path d="M257.364 594.81a1.53 1.53 0 01-.724-.184 1.495 1.495 0 01-.554-.5 1.524 1.524 0 01-.147-1.44c10.349-25.232 34.719-83.34 40.157-109.732 5.881-28.564 23.48-41.84 38.31-42.332 23.433-.78 32.382 5.996 35.353 26.732a1.536 1.536 0 01-2.446 1.444 1.535 1.535 0 01-.602-1.008c-2.744-19.16-10.282-24.784-32.204-24.088-13.622.448-29.869 12.948-35.412 39.872-5.496 26.684-29.795 84.68-40.32 110.28-.116.28-.311.52-.562.692-.25.168-.546.26-.849.264z" fill="#2E3847"/><path fill-rule="evenodd" clip-rule="evenodd" d="M282.178 297.225l3.944-33.315-35.166-5.102c5.543-5.906 30.824-31.074 37.26-35.757a70.936 70.936 0 0011.656-9.706c4.228-4.767 2.771-1.106 6.598-6.159 1.916-2.519 8.875-8.29 9.777-10.057a2.935 2.935 0 00-1.89-4.619c-2.923-.751-11.126 5.924-11.48 6.482.42-1.771.934-3.518 1.539-5.235a10.185 10.185 0 014.275-6.048c1.946-1.093 5.361 3.08 5.724 3.517 1.913 2.285 3.523 5.924 6.689 5.386 2.266-.385 3.171-2.279 2.515-4.721a15.01 15.01 0 00-1.795-3.781 11.97 11.97 0 003.172 1.782c2.429.718 3.27-1.447 3.107-3.547-.665-8.569-5.278-15.889-13.58-16.696 0 0 9.269 1.685 13.299-.132a2.725 2.725 0 001.128-3.671c-1.599-3.603-24.216-3.735-29.617.696 1.083-1.108 16.763-8.314 18.02-10.95 1.124-2.359-1.447-3.957-3.295-4.123a17.274 17.274 0 00-11.184 4.221c-6.319 4.62-13.007 11.954-14.473 20.441-1.632 9.398.099 22.805-6.519 28.699-11.498 10.245-33.524 16.111-59.175 34.085-6.344 4.444-17.355 13.451-16.416 22.396 2.728 25.981 31.529 32.777 75.887 35.914z" fill="#FCE0D1"/><path fill-rule="evenodd" clip-rule="evenodd" d="M323.198 321.317l-38.698 2.156c-29.226-55.12-4.927-63.25-4.927-63.25s12.625.136 33.962-1.047c21.965-1.216 27.141-6.346 37.589 1.848 10.347 8.111 36.241-10.212 36.241-10.212s24.238 8.259 42.882 14.643c17.84 6.106 28.12 2.399 45.592 29.041 17.472 26.642 4.42 17.293 17.044 45.158 12.6 27.816 11.752 45.596-5.352 48.176-17.168 2.587-29.228 4.37-29.228 4.37l-1.784 35.191-92.532 1.908c.006.056-34.88-61.777-40.789-107.982z" fill="#E3E5ED"/><path d="M324.132 171.434c1.365-.153 2.7-.506 3.963-1.047a4.35 4.35 0 001.885-5.719c-1.734-4.074-14.378-3.818-18.784-3.452 4.446-2.556 6.805-4.246 7.455-5.641a4.713 4.713 0 00-4.484-6.34 18.151 18.151 0 00-12.028 4.634c-3.833 2.916-12.933 10.867-14.753 21.722-.409 2.439-.65 5.053-.905 7.818-1.687 18.304-3.646 22.544-21.429 30.547a286.245 286.245 0 00-43.332 23.988c-1.876 1.312-18.276 13.164-17.023 24.942 2.661 24.54 26.993 31.554 68.121 35.373a1.55 1.55 0 001.681-1.398 1.543 1.543 0 00-1.398-1.682c-40.49-3.759-62.895-10.075-65.343-32.641-.868-8.166 9.909-18.029 15.729-22.106a277.13 277.13 0 0138.985-21.934c6.595-3.166 13.699-5.568 19.707-11.575 7.625-7.628 6.661-21.349 8.256-30.855 1.626-9.774 10.038-17.09 13.586-19.785a15.367 15.367 0 019.887-4.003 2.785 2.785 0 011.944 1.093.872.872 0 01.018.887c-1.262 2.285-16.034 9.201-17.417 10.701a1.537 1.537 0 00.035 2.105 1.542 1.542 0 002.102.103c4.964-4.262 25.023-3.492 26.6-1.284a1.336 1.336 0 01-.379 1.693 17.625 17.625 0 01-7.391.924 38.307 38.307 0 00-21.019 3.246 1.546 1.546 0 101.377 2.771 35.095 35.095 0 0117.321-3.079c5.69.717 8.403 5.268 9.071 14.676a2.765 2.765 0 01-.434 2.035c-.474.37-2.556-.923-2.827-1.305-4.954-6.827-10.094-10.47-15.267-10.806a11.594 11.594 0 00-8.838 3.197 1.544 1.544 0 00-.428 1.098c.009.408.18.796.474 1.079.295.282.69.436 1.099.428.408-.009.796-.18 1.079-.474a8.51 8.51 0 016.466-2.252c4.028.293 8.364 3.418 12.564 9.051.178.693 2.87 4.271 1.644 6.127a1.528 1.528 0 01-1.114.616c-1.848.339-3.24-2.839-5.014-4.926-2.063-2.575-5.044-5.346-7.572-3.905a11.626 11.626 0 00-4.853 6.956 52.199 52.199 0 00-1.539 5.444 1.54 1.54 0 002.703 1.331c1.204-1.355 8.105-6.467 9.651-6.048.325.096.626.262.88.486l.287.401a2.267 2.267 0 01-.293 1.647 58.129 58.129 0 00-11.43 12.625c-2.728 3.973-12.684 10.399-16.083 12.872-6.645 4.816-32.068 30.177-37.485 35.951a1.532 1.532 0 00-.33 1.562 1.54 1.54 0 001.232 1.015l25.164 3.662c.208.047.422.052.631.013a1.55 1.55 0 001.239-1.286 1.556 1.556 0 00-.323-1.192 1.53 1.53 0 00-1.094-.572l-22.199-3.233c7.924-8.145 29.232-29.253 34.988-33.42 3.793-2.771 13.693-9.084 16.813-13.626 7.125-10.469 10.593-10.549 11.809-13.352 3.233 2.014 8.428-.212 7.033-6.066 2.501.403 4.705-1.478 4.419-5.346-.385-5.201-1.38-10.977-5.09-14.469zm-18.258 23.122a9.938 9.938 0 013.572-5.792c.308 0 1.386.554 2.88 2.196a23.507 23.507 0 00-6.452 3.596z" fill="#2E3847"/><path d="M233.228 267.493a37.922 37.922 0 0016.675-9.743 1.535 1.535 0 011.692-.417 1.53 1.53 0 01.87.829 1.527 1.527 0 01.01 1.202c-.079.19-.196.363-.343.508a40.368 40.368 0 01-18.202 10.62 1.537 1.537 0 01-1.659-2.311 1.54 1.54 0 01.957-.688z" fill="#2E3847"/><path fill-rule="evenodd" clip-rule="evenodd" d="M416.464 420.691l-100.655-4.003 20.24 30.884 80.351-18.213-1.648-8.311 1.712-.357z" fill="#E3E5ED"/><path fill-rule="evenodd" clip-rule="evenodd" d="M437.885 369.185l1.172 11.702a91.398 91.398 0 01-18.708 5.416c-13.352 2.824-30.525 13.626-44.788 9.475-14.263-4.151-24.724-8.407-38.024-2.34-13.299 6.066-23.504 13.66-24.058 22.456-.555 8.86 5.235.308 5.235.308s-6.83 16.8 0 14.704a12.346 12.346 0 008.428-7.196s-2.584 14.396 1.909 13.78c4.493-.616 3.443-16.916 20.795-20.672 0 0-11.258 13.548-7.699 17.844 3.56 4.292 6.565-5.432 11.135-9.24 4.57-3.804 15.566-2.276 21.102-6.52 5.537-4.248 8.315-6.644 16.675-6.524 8.361.12 71.986 10.832 82.814 0 12.548-12.551 2.584-52.419 2.584-52.419a38.19 38.19 0 00-38.572 9.226z" fill="#FCE0D1"/><path d="M494.293 339.013c-12.568-27.775.664-18.201-17.156-45.371-17.82-27.168-27.304-23.045-46.372-29.647-17.584-6.159-42.651-14.565-42.9-14.649a1.544 1.544 0 00-1.38.201c-6.944 4.927-26.654 16.345-34.399 10.257-11.055-8.644-16.764-3.387-38.627-2.156-26.131 1.429-33.506.835-34.362 1.124a15.79 15.79 0 00-8.622 9.408c-3.354 8.335-3.862 24.831 12.659 56.01a1.54 1.54 0 001.447.816l37.275-2.073c3.206 22.938 13.321 49.402 21.667 68.361a31.285 31.285 0 013.079-.616c-9.238-20.865-18.997-47.046-21.879-69.574a1.541 1.541 0 00-1.54-1.343l-37.801 2.101c-15.419-29.417-15.117-44.734-12.102-52.414a13.294 13.294 0 016.602-7.698c2.035.022 14.387 0 33.759-1.05 22.032-1.232 26.71-6.18 36.554 1.518 10.279 8.077 33.186-6.821 37.432-9.718 48.994 16.492 41.986 14.78 53.866 17.737 11.964 2.974 19.864 4.927 33.08 25.087 17.388 26.51 4.004 16.419 16.94 44.958a86.964 86.964 0 018.332 27.474c-38.624-19.579-55.836-7.597-61.26-1.872-2.564-9.383-10.384-39.862-10.336-62.474.024-8.742 2.276-15.184 6.7-19.144a18.6 18.6 0 0113.188-4.311 1.54 1.54 0 00.344-3.058 21.478 21.478 0 00-15.548 5.044c-5.128 4.564-7.74 11.785-7.764 21.463-.06 27.348 11.148 65.824 11.264 66.206a1.53 1.53 0 001.276 1.092 1.53 1.53 0 00.864-.138c.272-.129.496-.333.652-.588.136-.231 14.892-22.248 60.72 1.441-.264 8.557-4.28 13.62-12.624 14.876l-7.116 1.072c.024 1.039.028 2.075.016 3.11l7.56-1.136a16.518 16.518 0 0012.912-8.237c4.584-8.462 2.432-22.628-6.4-42.089z" fill="#2E3847"/><path d="M477.951 360.91a1.544 1.544 0 00-.852-2.005 1.891 1.891 0 00-1.704.228c-1.128.881-.964 2.306.096 9.74 1.468 10.334 4.212 29.562-.432 39.722-6.704 14.764-76.205 2.348-83.974 2.232-8.428-.116-11.437 2.084-17.632 6.84-5.174 3.972-16.096 2.396-21.155 6.564-3.387 2.84-6.775 9.876-8.315 9.948-.067.044-.307-.1-.662-.52-1.792-2.156 3.317-10.612 7.699-15.876.205-.244.328-.548.352-.868.025-.32-.051-.64-.217-.912a1.512 1.512 0 00-.707-.616 1.528 1.528 0 00-.934-.092c-17.506 3.784-17.943 20.296-20.767 20.656-.899-.484-1.164-5.632-.191-11.444 3.735-12.604 18.821-16.32 18.99-16.364a1.542 1.542 0 001.103-1.84 1.543 1.543 0 00-1.808-1.156c-.185.044-16.419 4.004-21.001 17.72a1.437 1.437 0 00-.172.352 10.84 10.84 0 01-7.415 6.2c-.239.1-.501.136-.758.096-1.315-1.056 1.503-10.436 2.639-12.628.077-.148 7.637-14.508 21.697-17.286a1.522 1.522 0 00.982-.652 1.54 1.54 0 00-.422-2.138 1.52 1.52 0 00-.556-.23 1.52 1.52 0 00-.601 0c-14.402 2.842-22.325 16.146-23.647 18.542a17.569 17.569 0 01-2.546 2.94c-1.469-10.436 13.53-18.89 23.132-23.247 12.798-5.866 23.16-1.629 36.952 2.417 14.836 4.278 32.39-6.66 45.534-9.447a94.945 94.945 0 0018.948-5.484c19.264-5.989 27.404 6.587 27.712 7.125a1.538 1.538 0 002.12.501c.348-.215.596-.559.692-.957a1.543 1.543 0 00-.192-1.163c-.092-.145-9.152-14.369-29.56-8.93l-.988-9.854a1.55 1.55 0 00-2.74-.826c-.256.317-.38.725-.34 1.134l1.06 10.568a107.497 107.497 0 01-17.38 4.878c-13.52 2.863-30.344 13.453-44.035 9.503-14.543-4.262-25.25-8.623-39.092-2.264-16.012 7.27-24.422 15.266-24.942 23.762-.139 2.22-.047 4.856 1.927 5.528.458.152.95.168 1.417.044-1.097 3.852-1.817 8.312-.071 10.236a3.54 3.54 0 003.942.776 15.956 15.956 0 005.746-3.08 13.037 13.037 0 001.579 8.756 3.144 3.144 0 002.771.952c5.624-.768 4.161-13.916 16.395-19.256-3.387 4.772-7.699 12.244-4.687 15.884a3.871 3.871 0 003.181 1.632c3.939-.188 6.396-7.532 10.122-10.652 4.058-3.348 15.169-1.968 21.059-6.488 5.666-4.348 8.006-6.332 15.705-6.208 9.803.14 78.875 13.472 86.819-4.036 7.068-15.393-1.072-46.013.124-48.957zm-305.366 55.897a42.279 42.279 0 00-29.398 9.184c-12.317 9.74-19.797 26.156-22.226 48.796-.018.168-.004.336.044.496.047.16.125.312.23.44.105.132.235.24.382.32.147.08.308.132.475.148.167.02.335.004.496-.044a1.25 1.25 0 00.761-.612c.08-.144.131-.308.149-.472 2.349-21.908 9.493-37.732 21.247-47.036a40.443 40.443 0 0127.536-8.688c.335.04.673-.056.94-.264a1.27 1.27 0 00.217-1.788 1.27 1.27 0 00-.853-.48zM295.82 603.972a1.604 1.604 0 01-.778-.212 1.543 1.543 0 01-.534-2.132c36.644-59.852 38.932-65.416 47.113-88.792 7.921-22.648 21.155-29.848 21.713-30.144a1.553 1.553 0 011.173-.108c.391.12.717.388.908.752a1.536 1.536 0 01-.64 2.08c-.127.068-12.745 7.024-20.247 28.436-8.006 22.884-9.447 27.404-47.394 89.384-.137.224-.33.408-.561.536-.23.132-.489.2-.753.2zm-85.087-9.224a1.55 1.55 0 01-1.154-.508 1.54 1.54 0 01-.386-1.204s8.364-74.76 11.874-105.884c1.848-16.628 4.638-35.248 14.547-46.088a1.537 1.537 0 012.175-.096c.302.272.481.656.5 1.064.018.408-.127.808-.402 1.108-9.285 10.164-11.973 28.22-13.759 44.344a159556.447 159556.447 0 00-11.874 105.884 1.535 1.535 0 01-1.521 1.38zm39.451.063c-.234 0-.465-.056-.675-.156a1.549 1.549 0 01-.819-1.756c13.506-53.808 21.479-83.8 26.175-109.904.059-.332.226-.64.477-.868a44.045 44.045 0 0124.385-10.908c.2-.028.404-.02.6.032.196.048.38.136.542.26a1.532 1.532 0 01.568 1.612c-.05.196-.138.38-.259.544a1.57 1.57 0 01-.447.4 1.51 1.51 0 01-.567.2 41.218 41.218 0 00-22.362 9.788c-4.899 26.9-12.317 54.272-26.137 109.592a1.532 1.532 0 01-.542.832 1.541 1.541 0 01-.939.332z" fill="#2E3847"/><path d="M120.41 590.255a1.54 1.54 0 01-1.52-1.304c-6.794-44.06 4.206-99.592 4.31-100.152.055-.272.183-.524.37-.732.804-.884 20.632-21.688 102.972-28 .409-.032.813.1 1.124.368.31.268.502.648.533 1.056a1.546 1.546 0 01-1.423 1.656c-75.662 5.796-97.965 24.244-100.647 26.732-1.041 5.42-10.587 57.22-4.207 98.612a1.53 1.53 0 01-.874 1.62c-.2.092-.417.144-.638.144z" fill="#2E3847"/><path fill-rule="evenodd" clip-rule="evenodd" d="M137.457 324.297h117.575l81.029 123.268-140.725-5.72-57.879-117.548z" fill="#E3E5ED"/><path d="M416.561 422.224a1.56 1.56 0 001.088-.46 1.546 1.546 0 00-.02-2.18 1.54 1.54 0 00-1.092-.44l-41.345-1.66a1.458 1.458 0 00-.6.08 1.498 1.498 0 00-1.002 1.392 1.54 1.54 0 001.479 1.604l28.104 1.128-71.696 16.092-75.135-114.29a1.575 1.575 0 00-1.284-.724H137.453a1.51 1.51 0 00-1.31.702 1.504 1.504 0 00-.07 1.484l57.891 117.576c.123.248.309.46.541.608.232.152.501.24.777.252 156.14 6.304 139.937 5.944 142.635 5.336l78.832-17.86a1.53 1.53 0 00.948-.66c.22-.336.3-.748.22-1.14l-1.356-6.84zm-220.232 18.128l-56.385-114.513h114.273l78.924 120.065-136.812-5.552zm140.433 5.484l-3.486-5.304 80.209-18.004 1.124 5.66-77.847 17.648z" fill="#2E3847"/><path fill-rule="evenodd" clip-rule="evenodd" d="M146.496 217.047l50.206 81.694-16.059-96.691s53.429-48.302 37.161-104.056S143.112 6.32 79.37 26.686C15.628 47.053 9.753 126.346 24.306 163.52c28.915 73.87 122.19 53.528 122.19 53.528z" fill="#fff"/><path d="M195.387 299.55l-49.648-80.795c-10.593 1.958-95.56 15.252-122.865-54.683-8.644-22.014-10.873-60.567 4.647-93.208a84.493 84.493 0 0151.378-45.65c63.308-20.229 123.524 14.429 140.38 72.345 15.422 52.718-31.011 99.314-36.985 105.026l15.923 95.909a1.544 1.544 0 01-.981 1.69 1.542 1.542 0 01-1.849-.634zm-47.582-83.314l46.086 75-14.781-88.956a1.542 1.542 0 01.483-1.395c.53-.477 52.558-48.314 36.718-102.467-16.431-56.5-75.046-89.895-136.473-70.273a81.475 81.475 0 00-49.521 44.037c-15.141 31.809-12.986 69.349-4.582 90.754 28.04 71.8 119.508 52.789 120.432 52.589a1.54 1.54 0 011.638.711z" fill="#2E3847"/><path d="M115 186.031a12.628 12.628 0 008.928-21.552 12.62 12.62 0 00-13.759-2.737 12.628 12.628 0 00-4.096 20.592 12.628 12.628 0 008.927 3.697zm-33.04-37.73l7.32 12.481s5.417-10.947 22.951-12.367c17.472-1.41 24.918 8.314 24.918 8.314l6.398-13.906s-11.199-12.551-33.102-9.546c-21.904 3.006-28.484 15.024-28.484 15.024zm-14.57-31.683l8.774 14.211s9.755-12.674 35.172-14.076c25.417-1.401 36.249 10.95 36.249 10.95l9.309-16.551s-16.289-12.554-48.154-9.546c-31.773 3.009-41.35 15.012-41.35 15.012z" fill="#E3E5ED"/><path d="M51.625 88.679l10.288 15.763s14.78-14.211 49.146-15.627c34.365-1.417 49.516 12.354 49.516 12.354l12.098-17.974S151.857 65.1 108.759 68.12C65.79 71.14 51.625 88.68 51.625 88.68z" fill="#E3E5ED"/><path fill-rule="evenodd" clip-rule="evenodd" d="M363.859 593.27h231.824s19.744-125.7-6.656-159.108c-26.4-33.404-121.504-22.64-168.852-13.412-47.352 9.228-55.152 48.916-57.97 76.292-2.817 27.32 1.654 96.228 1.654 96.228z" fill="#1627A7" fill-opacity=".8"/><path d="M363.808 594.867a1.543 1.543 0 01-1.539-1.44c-.044-.692-4.394-69.352-1.66-96.54 3.227-31.408 12.872-68.62 59.202-77.648 17.792-3.468 108.796-19.709 153.256 1.124.188.08.36.2.504.348.144.148.256.324.328.516.076.196.108.4.1.608a1.468 1.468 0 01-.144.596 1.531 1.531 0 01-.892.804 1.528 1.528 0 01-1.2-.088c-43.6-20.424-133.732-4.324-151.36-.888-44.342 8.644-53.611 44.588-56.73 74.94-2.713 26.932 1.626 95.344 1.669 96.028a1.546 1.546 0 01-.413 1.152 1.498 1.498 0 01-.51.36c-.192.084-.4.128-.611.128z" fill="#2E3847"/><path d="M416.464 563.982a1.546 1.546 0 01-1.516-1.28c-.468-2.7-11.148-66.556 13.624-100.652 24.888-34.26 97.804-29.7 100.9-29.488a1.538 1.538 0 011.432 1.644 1.547 1.547 0 01-.524 1.06 1.548 1.548 0 01-1.12.376c-.736-.052-74.312-4.656-98.196 28.224-24.004 33.04-13.192 97.672-13.08 98.32a1.552 1.552 0 01-.344 1.248 1.54 1.54 0 01-1.176.548zM271.475 175.568a1.54 1.54 0 01-1.481-1.115c-5.174-17.974 6.774-26.233 6.897-26.316a1.539 1.539 0 012.142 2.13 1.532 1.532 0 01-.423.426c-.416.286-10.19 7.162-5.657 22.91a1.542 1.542 0 01-1.478 1.965zm-5.894 13.713a1.543 1.543 0 01-1.266-.659 43.567 43.567 0 01-7.218-36.231 1.538 1.538 0 011.91-.945 1.539 1.539 0 011.025 1.868 41.286 41.286 0 006.802 33.549 1.541 1.541 0 01-1.253 2.418z" fill="#2E3847"/><path d="M48.797 163.87L183.092 62.797l6.645 7.443L55.242 170.465l-6.445-6.595z" fill="#EC6A7A"/><path d="M394.827 218.187c-2.22 12.216-7.11 10.079-7.11 10.079a37.54 37.54 0 00-5.139-15.326s8.458-17.226-3.6-25.882c-12.059-8.656-20.12 6.19-31.409 1.974-13.549-5.053-18.529 1.54-22.297 8.006a20.046 20.046 0 00-2.658 11.985c1.26 13.488 5.743 10.633 5.998 28.989.127 11.015 1.54 18.891 11.015 24.736 14.842 9.081 14.091 8.573 15.936 10.214 0 0 5.721 20.425 24.243 15.378 27.317-7.39 20.981-26.762 20.981-26.762l-7.755-12.983c2.892-7.082 1.783-7.39 1.783-7.39a25.646 25.646 0 0013.596-14.276 17.076 17.076 0 001.216-12.009c-1.984-5.481-12.435-9.632-14.8 3.267z" fill="#FCE0D1"/><path fill-rule="evenodd" clip-rule="evenodd" d="M408.112 212.494s-10.584-9.087-13.285 5.703c-2.229 12.212-7.11 10.078-7.11 10.078a37.516 37.516 0 00-5.139-15.325s8.459-17.226-3.6-25.882c-12.059-8.656-20.117 6.186-31.409 1.974-17.833-6.655-19.341 4.274-24.268 11.085 0 0 1.351-33.099 38.31-36.357 29.149-2.562 47.465 7.23 46.501 48.724z" fill="#000"/><path d="M348.721 245.572c-.061-.133-.138-.308-.209-.447-1.075.884-2.771 3.603-5.463 2.642-2.919-1.034-2.128-5.068-.816-7.892a1.547 1.547 0 01.867-.809 1.522 1.522 0 011.185.046 1.549 1.549 0 01.8.875 1.537 1.537 0 01-.059 1.185 7.158 7.158 0 00-.843 3.781c.184 0 .871-.715 1.324-1.189.874-.924 2.075-2.183 3.738-1.767a3.514 3.514 0 012.285 2.309c.44.982.499 1.102 1.539.924 1.149-.219 1.454-.791 1.897-1.786 1.081-2.43 2.479-2.636 4.743-1.426l-.09-.498a1.533 1.533 0 01.22-1.178 1.542 1.542 0 012.588.03c.11.174.183.369.216.572.333 1.739.554 3.51-.668 4.394-1.414 1.025-2.969-.274-4.12-.807a5.42 5.42 0 01-4.21 3.726 3.938 3.938 0 01-3.02-.319 3.957 3.957 0 01-1.904-2.366zm20.417 11.169c-1.361-1.041-8.348-6.227-12.191-5.74a5.637 5.637 0 00-3.969 1.878c-2.575-1.54-6.87-1.352-8.111 1.389a5.984 5.984 0 00.249 4.539 1.541 1.541 0 00.01 2.471c.259.191.571.296.892.3.333-.002.657-.109.924-.308.056-.043 5.604-4.003 20.983-1.789a1.54 1.54 0 001.213-2.74zm-21.46-1.208c.308-.664 3.236-1.019 4.619.755a25.222 25.222 0 00-4.394 1.139 2.985 2.985 0 01-.225-1.894zm7.72.361c0-.441-.24-.718-.028-1.065a2.838 2.838 0 011.95-.774c1.742.167 3.414.776 4.856 1.768a49.3 49.3 0 00-6.778.071zm1.892 12.059a11.797 11.797 0 01-6.568-2.082 1.536 1.536 0 01-.25-2.135 1.538 1.538 0 012.128-.304c.616.456 6.054 4.253 11.88-2.436a1.543 1.543 0 012.322 2.027 12.482 12.482 0 01-9.512 4.93zm-27.127-43.489h-.386a1.544 1.544 0 11.228-3.079c.653.037 6.212.185 6.713-7.197a1.543 1.543 0 013.08.21c-.471 6.778-4.749 10.066-9.635 10.066zm25.432-2.96a6.078 6.078 0 01-2.217-.342 1.541 1.541 0 01-.016-2.81 1.544 1.544 0 011.149-.051 8.933 8.933 0 006.199-1.333c4.437-2.242 3.809-5.722 13.379-4.592a1.54 1.54 0 11-.363 3.058c-8.194-.97-6.328 1.601-11.624 4.28a14.539 14.539 0 01-6.507 1.79z" fill="#2E3847"/><path d="M399.267 208.562c-3.009 1.062-5.01 4.206-5.953 9.346-.468 2.577-1.755 8.031-4.243 8.868a41.531 41.531 0 00-5.01-14.365c1.598-3.621 7.156-18.42-4.24-26.605-12.863-9.238-19.52 5.422-35.628 1.053-11.702-3.2-15.81.308-18.454 4.927a28.813 28.813 0 00-4.188 10.673 58.163 58.163 0 002.94 20.256c5.454 15.445.148 18.084 3.551 28.449 2.971 8.983 10.556 13.291 18.583 17.86 6.99 3.967 3.899 2.31 7.48 4.419.468 1.54 5.657 17.201 20.016 17.198 2.04-.014 4.07-.3 6.035-.85 10.042-2.716 16.881-7.332 20.324-13.712a20.405 20.405 0 001.725-15.002c-.104-.308.04 0-6.742-11.369a26.113 26.113 0 00.989-7.369 22.558 22.558 0 008.013-5.249 22.554 22.554 0 005.108-8.103 25.943 25.943 0 001.988-9.487c-.02-9.9-8.144-12.407-12.294-10.938zm.055 53.608a17.623 17.623 0 01-1.571 12.487c-3.045 5.588-9.238 9.678-18.402 12.16-12.785 3.455-18.916-6.23-21.207-11.375a16.772 16.772 0 006.048 1.176l2.596 5.82a1.536 1.536 0 002.034.777 1.536 1.536 0 00.777-2.034l-2.18-4.89a20.407 20.407 0 005.235-1.847c12.782-6.436 18.756-14.396 21.515-20.939l5.155 8.665zm7.391-34.31a18.945 18.945 0 01-12.213 11.865 1.536 1.536 0 00-1.186 1.702c1.053 8.022-4.868 21.614-22.048 30.264-9.007 4.545-13.894-.111-23.095-5.346-7.498-4.262-14.58-8.286-17.179-16.142-3.08-9.367 2.081-12.502-3.572-28.508-2.119-5.98-4.45-16.967-.545-25.25 2.694-5.722 4.637-9.854 16.532-6.602 17.291 4.692 23.591-9.463 34.643-1.522 10.824 7.773 3.249 22.874 2.919 23.514a1.542 1.542 0 00.08 1.54 38.991 38.991 0 015.161 15.055c.12 1.155 1.232 1.539 2.399 1.539 4.816 0 6.898-6.737 7.76-11.482.499-2.726 1.589-6.159 3.941-6.994a6.685 6.685 0 012.735-.011 6.688 6.688 0 014.372 3.091c.476.79.78 1.67.9 2.583a20.198 20.198 0 01-1.62 10.704h.016z" fill="#2E3847"/><path d="M395.608 234.829a1.533 1.533 0 01-1.533-1.426c-.02-.257.026-.514.132-.748 7.08-15.659 7.716-17.171 7.74-17.226.164-.367.464-.656.84-.804a1.533 1.533 0 011.16.009c.368.154.664.447.824.817.156.369.164.786.02 1.16-.024.05-.584 1.392-7.779 17.312a1.537 1.537 0 01-1.404.906zm-59.513-7.735c-1.26.422-1.765 2.319-1.128 4.244.638 1.924 2.183 3.141 3.446 2.722 1.263-.419 1.764-2.319 1.127-4.243-.638-1.925-2.183-3.129-3.445-2.723zm29.834-1.668c-1.259.419-1.764 2.319-1.124 4.243.641 1.925 2.183 3.144 3.443 2.722 1.259-.421 1.764-2.318 1.127-4.243-.637-1.924-2.177-3.141-3.446-2.722z" fill="#2E3847"/></svg>