<svg width="40" height="50" fill="none" xmlns="http://www.w3.org/2000/svg"><g clip-path="url(#clip0_2301_16288)"><path d="M22.45 17.56h13.48L22.45 3.92v13.64zM5.294.2H24.9l14.706 14.88v29.762a4.99 4.99 0 01-1.435 3.508 4.873 4.873 0 01-3.467 1.452H5.294c-1.3 0-2.547-.522-3.467-1.453a4.99 4.99 0 01-1.435-3.507V5.16a4.99 4.99 0 011.435-3.508A4.873 4.873 0 015.294.2zm12.083 25.892c1.005 2.232 2.28 4.068 3.75 5.332l1.005.794c-2.133.397-5.074 1.091-8.187 2.307l-.27.099 1.226-2.58c1.103-2.157 1.912-4.117 2.476-5.952zm15.882 9.45c.441-.447.662-1.017.687-1.637a2.014 2.014 0 00-.295-1.364c-.71-1.166-2.549-1.712-5.588-1.712l-3.162.174-2.132-1.439c-1.544-1.29-2.941-3.546-3.921-6.349l.098-.347c.808-3.299 1.568-7.292-.05-8.929a2.08 2.08 0 00-1.495-.595h-.588c-.907 0-1.715.967-1.936 1.91-.907 3.298-.368 5.109.54 8.11v.025c-.614 2.182-1.398 4.712-2.648 7.267l-2.353 4.464-2.181 1.215c-2.941 1.86-4.338 3.944-4.608 5.258-.098.471-.05.893.122 1.34l.074.123 1.176.77 1.079.272c1.985 0 4.24-2.356 7.28-7.614l.44-.174c2.525-.818 5.662-1.389 9.878-1.86 2.524 1.265 5.49 1.835 7.353 1.835 1.078 0 1.814-.272 2.23-.743zm-1.005-1.761l.22.272c-.024.248-.097.273-.22.323h-.098l-.465.05c-1.128 0-2.868-.472-4.657-1.266.22-.247.318-.247.564-.247 3.43 0 4.411.62 4.656.868zM9.78 37.4c-1.593 2.952-3.04 4.589-4.142 4.96.122-.941 1.225-2.578 2.965-4.19l1.177-.77zm7.402-17.137c-.564-2.232-.588-4.043-.172-5.085l.172-.297.367.124c.417.595.466 1.389.221 2.728l-.073.397-.393 2.034-.122.099z" fill="#DF5B57"/></g><defs><clipPath id="clip0_2301_16288"><path fill="#fff" d="M0 0h40v50H0z"/></clipPath></defs></svg>